<?xml version="1.0" encoding="UTF-8" standalone="no"?>
<svg
   xmlns:dc="http://purl.org/dc/elements/1.1/"
   xmlns:cc="http://creativecommons.org/ns#"
   xmlns:rdf="http://www.w3.org/1999/02/22-rdf-syntax-ns#"
   xmlns:svg="http://www.w3.org/2000/svg"
   xmlns="http://www.w3.org/2000/svg"
   viewBox="0 0 350.54666 332.48001"
   height="332.48001"
   width="350.54666"
   xml:space="preserve"
   id="svg2"
   version="1.1"><metadata
     id="metadata8"><rdf:RDF><cc:Work
         rdf:about=""><dc:format>image/svg+xml</dc:format><dc:type
           rdf:resource="http://purl.org/dc/dcmitype/StillImage" /></cc:Work></rdf:RDF></metadata><defs
     id="defs6" /><g
     transform="matrix(1.3333333,0,0,-1.3333333,0,332.48)"
     id="g10"><g
       transform="scale(0.1)"
       id="g12"><path
         id="path14"
         style="fill:#2e3192;fill-opacity:1;fill-rule:nonzero;stroke:none"
         d="m 91.3789,1274.43 c -1.75,-11.15 -5.5117,-10.81 -13.2226,-10.36 l -54.5625,3.19 c -7.6954,0.44 -11.4844,0.53 -11.9141,11.8 l -0.0977,2.99 -5.11716,0.3 c -0.18359,-3.1 -0.37109,-6.21 -0.42968,-9.33 -0.04688,-3.25 -0.09766,-6.63 -0.29297,-9.87 l -0.63672,-10.8 c -0.18359,-3.25 -0.51563,-6.6 -0.84766,-9.86 -0.3125,-3.08 -0.48828,-6.21 -0.66406,-9.3 l 5.13672,-0.29 0.44922,2.95 c 1.71871,11.15 5.49611,10.8 13.19141,10.35 l 23.0977,-1.37 -2.3633,-40.51 -23.0938,1.34 c -7.6875,0.45 -11.48826,0.54 -11.90623,11.82 l -0.11719,2.98 -5.11719,0.29 c -0.19531,-3.09 -0.35937,-6.19 -0.41015,-9.32 -0.04688,-3.25 -0.11719,-6.64 -0.29297,-9.87 l -0.64453,-10.79 c -0.1875,-3.25 -0.527346,-6.62 -0.839846,-9.86 C 0.359375,1177.81 0.175781,1174.72 0,1171.6 l 5.13672,-0.3 0.44922,2.96 c 1.71875,11.14 5.48826,10.79 13.18356,10.35 l 54.5782,-3.18 c 7.6953,-0.45 11.4961,-0.55 11.9179,-11.82 l 0.086,-2.98 5.1562,-0.31 c 0.1641,3.11 0.3399,6.22 0.3906,9.34 0.0508,3.25 0.1172,6.63 0.3047,9.88 l 0.6328,10.8 c 0.1875,3.24 0.5274,6.6 0.8477,9.85 0.3125,3.09 0.5,6.2 0.6758,9.31 l -5.1289,0.29 -0.4453,-2.96 c -1.7305,-11.13 -5.5196,-10.78 -13.2149,-10.32 l -24.707,1.43 2.3633,40.51 24.707,-1.43 c 7.6953,-0.44 11.4844,-0.54 11.9141,-11.82 l 0.0976,-2.97 5.1367,-0.3 c 0.1875,3.1 0.3711,6.21 0.3985,9.32 0.0586,3.24 0.1093,6.63 0.3125,9.87 l 0.6367,10.82 c 0.1836,3.23 0.5195,6.6 0.832,9.82 0.3203,3.11 0.4961,6.21 0.6719,9.32 l -5.1289,0.31 -0.4258,-2.96" /><path
         id="path16"
         style="fill:#2e3192;fill-opacity:1;fill-rule:nonzero;stroke:none"
         d="m 77.5703,1377.1 -28.9258,19.05 33.8946,5.77 z m 25.6527,48.85 -77.5863,-14.43 -1.3008,-6.5 60.9493,-41.06 c 8.7578,-5.91 15.5278,-10.02 15.3668,-21.17 l 5.051,-1.01 c 0.344,3.1 1.152,8.59 2.332,13.75 l 4.153,18.63 -5.071,1.02 -1.16,-3.08 c -1.699,-4.34 -3.035,-7.68 -9.0117,-6.47 -3.8594,0.76 -6.9336,3.32 -10.5976,5.71 l -2.9102,1.96 5.9375,29.73 4.3359,0.94 c 8.2421,1.8 11.3481,1.59 13.6251,1.13 4.644,-0.93 3.816,-5.73 3.633,-8.74 l -0.293,-3.54 5.047,-1 c 0.605,3.74 1.574,9.9 2.363,13.89 0.5,2.51 0.977,4.9 1.477,7.44 0.574,2.78 1.152,5.71 1.726,8.48 0.859,4.38 2.539,11.37 3.524,15.59 l -5.04,1.01 c -2.429,-10.02 -8.945,-10.92 -16.55,-12.28" /><path
         id="path18"
         style="fill:#2e3192;fill-opacity:1;fill-rule:nonzero;stroke:none"
         d="m 199.797,1589.28 1.863,5.37 -30.652,10.72 -2.778,-7.91 c -1.375,-3.98 -2.847,-4.47 -6.929,-3.04 l -56.848,19.86 c -7.285,2.55 -10.8983,3.67 -8.2225,14.63 l 0.7226,2.9 -4.8554,1.7 c -1.0235,-2.94 -2.0586,-5.88 -2.9454,-8.87 -0.9375,-3.1 -1.9335,-6.34 -3,-9.41 l -3.5937,-10.22 c -1.043,-3.06 -2.3047,-6.21 -3.4961,-9.23 -1.1523,-2.9 -2.1758,-5.83 -3.2031,-8.77 l 4.8437,-1.69 1.2422,2.71 c 4.7227,10.25 8.2695,8.86 15.543,6.33 l 54.9217,-19.2 c 7.922,-2.77 6.145,-5.44 4.699,-9.53 l -8.117,-23.25 c -1.426,-4.08 -1.687,-7.29 -9.605,-4.51 l -54.9534,19.18 c -7.2578,2.55 -10.8906,3.68 -8.2031,14.63 l 0.7343,2.9 -4.8554,1.71 c -1.0352,-2.95 -2.0703,-5.88 -2.9688,-8.87 -0.9258,-3.11 -1.914,-6.35 -2.9961,-9.4 l -3.5664,-10.23 c -1.0742,-3.08 -2.3047,-6.22 -3.5156,-9.25 -1.1719,-2.9 -2.1875,-5.83 -3.2031,-8.77 l 4.8437,-1.69 1.2305,2.72 c 4.7266,10.25 8.2812,8.87 15.5469,6.33 l 51.6215,-18.04 c 7.277,-2.54 10.898,-3.66 8.222,-14.63 l -0.722,-2.9 4.843,-1.7 c 3.758,11.16 4.922,14.91 6.082,18.23 l 19.25,55.07 c 4.102,11.74 9.446,20.06 33.02,16.12" /><path
         id="path20"
         style="fill:#2e3192;fill-opacity:1;fill-rule:nonzero;stroke:none"
         d="m 131.785,1709.01 c 5.949,9.59 9.289,7.77 16.195,4.36 l 48.985,-24.17 c 6.922,-3.41 10.379,-4.97 6.355,-15.51 l -1.047,-2.79 4.59,-2.27 c 1.379,2.79 2.754,5.58 4.016,8.42 1.316,2.97 2.684,6.07 4.141,8.96 l 4.777,9.71 c 1.433,2.92 3.047,5.88 4.617,8.72 1.492,2.75 2.859,5.53 4.238,8.33 l -4.597,2.27 -1.567,-2.55 c -5.933,-9.6 -9.265,-7.79 -16.172,-4.38 l -49.011,24.19 c -6.907,3.41 -10.364,4.95 -6.36,15.51 l 1.075,2.79 -4.598,2.27 c -1.375,-2.8 -2.766,-5.58 -4.016,-8.42 -1.316,-2.98 -2.691,-6.06 -4.121,-8.97 l -4.805,-9.72 c -1.421,-2.9 -3.054,-5.87 -4.597,-8.71 -1.504,-2.75 -2.871,-5.53 -4.238,-8.32 l 4.589,-2.27 1.551,2.55" /><path
         id="path22"
         style="fill:#2e3192;fill-opacity:1;fill-rule:nonzero;stroke:none"
         d="m 220.41,1868.07 c 5.039,7.68 18.828,20.8 48.914,1.07 27.031,-17.75 26.797,-33.61 18.93,-45.59 -5.258,-8.03 -19.316,-19.84 -49.621,0.04 -29.403,19.29 -23.059,37.13 -18.223,44.48 z m 5.695,-65.05 c 23.512,-15.43 52.301,-5.85 66.891,16.43 14.719,22.39 14.863,53.19 -9.558,69.22 -21.036,13.81 -50.196,10.29 -67.93,-16.75 -15.879,-24.19 -12.586,-53.69 10.597,-68.9" /><path
         id="path24"
         style="fill:#2e3192;fill-opacity:1;fill-rule:nonzero;stroke:none"
         d="m 303.73,1982.07 c 8.282,7.67 11.028,5.04 16.778,-0.09 l 40.808,-36.38 c 5.754,-5.14 8.684,-7.55 2.004,-16.66 l -1.757,-2.4 3.82,-3.42 c 2.078,2.31 4.148,4.65 6.133,7.05 2.058,2.52 4.199,5.14 6.367,7.56 l 7.195,8.09 c 2.168,2.41 4.531,4.86 6.777,7.2 2.176,2.23 4.239,4.54 6.309,6.87 l -3.84,3.42 -2.176,-2.03 c -8.269,-7.67 -11.015,-5.05 -16.789,0.1 l -18.472,16.45 27.008,30.31 18.488,-16.47 c 5.754,-5.14 8.68,-7.56 2.004,-16.66 l -1.77,-2.38 3.828,-3.43 c 2.078,2.31 4.153,4.63 6.114,7.05 2.082,2.51 4.218,5.13 6.386,7.55 l 7.2,8.08 c 2.156,2.43 4.507,4.87 6.765,7.2 2.18,2.24 4.246,4.56 6.328,6.89 l -3.847,3.42 -2.188,-2.06 c -8.269,-7.67 -11.008,-5.04 -16.777,0.1 l -40.801,36.37 c -5.762,5.14 -8.684,7.56 -2.031,16.67 l 1.797,2.4 -3.836,3.43 c -2.075,-2.32 -4.145,-4.66 -6.125,-7.07 -2.051,-2.51 -4.2,-5.14 -6.367,-7.56 l -7.188,-8.08 c -2.168,-2.43 -4.531,-4.84 -6.797,-7.2 -2.156,-2.22 -4.238,-4.54 -6.308,-6.87 l 3.828,-3.41 2.199,2.03 c 8.277,7.67 11.016,5.04 16.766,-0.1 l 17.285,-15.38 -27.024,-30.3 -17.273,15.37 c -5.75,5.15 -8.672,7.57 -2.012,16.68 l 1.785,2.39 -3.836,3.43 c -2.07,-2.34 -4.14,-4.66 -6.113,-7.07 -2.07,-2.5 -4.23,-5.12 -6.367,-7.55 l -7.227,-8.07 c -2.136,-2.43 -4.492,-4.88 -6.765,-7.21 -2.161,-2.22 -4.243,-4.55 -6.313,-6.88 l 3.852,-3.43 2.175,2.05" /><path
         id="path26"
         style="fill:#2e3192;fill-opacity:1;fill-rule:nonzero;stroke:none"
         d="M 504.824,2112.39 485.566,2096 474.68,2128.83 Z m -22.375,-57.61 3.321,-3.91 c 2.199,2.23 6.242,6.04 10.343,9.34 l 14.805,12.05 -3.34,3.92 -2.82,-1.68 c -4.035,-2.37 -7.153,-4.15 -11.086,0.5 -2.539,3 -3.391,6.89 -4.777,11.03 l -1.082,3.36 23.085,19.64 3.965,-1.96 c 7.571,-3.68 9.895,-5.78 11.399,-7.54 3.054,-3.59 -0.547,-6.85 -2.571,-9.1 l -2.421,-2.59 3.339,-3.91 c 2.801,2.55 7.364,6.79 10.442,9.43 1.969,1.66 3.816,3.23 5.789,4.9 2.168,1.85 4.426,3.78 6.594,5.62 3.386,2.89 9.019,7.34 12.402,10.04 l -3.32,3.92 c -8.098,-6.36 -13.782,-3.03 -20.598,0.59 l -69.766,36.7 -5.066,-4.28 22.391,-69.95 c 3.222,-10.04 5.996,-17.46 -1.028,-26.12" /><path
         id="path28"
         style="fill:#2e3192;fill-opacity:1;fill-rule:nonzero;stroke:none"
         d="m 583.32,2235.64 c 9.778,4.87 15.418,1.57 24.121,-14.74 11.004,-20.61 12.61,-30.85 13.125,-39.7 0.579,-8.64 -1.894,-10.56 -2.695,-11.05 -1.25,-0.82 -3.164,-0.61 -4.812,-0.54 -1.34,0.11 -3.821,0.44 -6.672,-1.39 -4.668,-3.01 -5.11,-8.09 -2.903,-11.51 2.207,-3.44 7.754,-6.3 14.582,-1.91 3.536,2.28 8.118,6.66 9.942,15.09 3.828,17.59 -6.055,41.98 -17.586,62.43 l -6.02,10.61 c -0.625,1.21 -1.746,3.71 2.129,6.2 l 10.473,6.74 c 1.609,1.03 2.937,1.7 4.922,-1.36 l 33.679,-52.4 c 4.168,-6.49 6.329,-9.62 -2.539,-16.59 l -2.351,-1.85 2.781,-4.32 c 2.609,1.69 5.227,3.36 7.793,5.14 2.637,1.89 5.43,3.84 8.145,5.58 l 9.129,5.87 c 2.726,1.75 5.656,3.48 8.457,5.11 2.687,1.58 5.316,3.27 7.921,4.94 l -2.773,4.35 -2.637,-1.4 c -10.058,-5.17 -11.992,-1.9 -16.152,4.58 l -29.602,46.04 c -4.168,6.49 -6.336,9.61 2.532,16.59 l 2.375,1.85 -2.786,4.32 c -2.628,-1.69 -5.246,-3.38 -7.793,-5.17 -2.656,-1.87 -5.417,-3.8 -8.171,-5.56 l -32.7,-21.02 c -2.5,-1.61 -5.418,-3.33 -18.777,-11.61 l 2.781,-4.32 2.082,1" /><path
         id="path30"
         style="fill:#2e3192;fill-opacity:1;fill-rule:nonzero;stroke:none"
         d="m 775.559,2299.95 c 4.89,2.28 8.64,3.88 14.031,2.21 6.496,-2.03 10.09,-7.83 12.148,-12.23 6.922,-14.84 -0.593,-22.09 -6.855,-25.01 -8.457,-3.95 -12.317,3.36 -13.516,5.94 l -12.129,25.99 c 2.024,1.08 4.239,2.13 6.321,3.1 z m -51.926,18.48 c 7.472,2.88 10.969,2.73 15.383,-6.7 l 23.218,-49.79 c 4.414,-9.44 2.278,-12.24 -4.722,-16.1 l -1.672,-0.94 2.18,-4.65 c 6.875,3.52 14.175,7.05 21.16,10.33 8.957,4.16 15.383,6.72 21.504,9.59 14.226,6.63 32.296,18.49 22.675,39.11 -2.91,6.23 -9.714,14.71 -23.996,14.62 -9.082,-0.06 -17.547,-4 -24.539,-7.27 -2.812,-1.32 -5.461,-2.69 -8.23,-4.14 l -8.457,18.14 c -4.407,9.45 -2.27,12.24 4.722,16.1 l 1.672,0.93 -2.176,4.66 c -3.871,-1.95 -10.5,-5.35 -14.679,-7.29 -2.196,-1.03 -4.285,-2 -6.485,-3.03 -2.214,-1.03 -4.296,-2.02 -6.496,-3.04 -4.175,-1.94 -11.043,-4.84 -15.015,-6.56 l 2.175,-4.64 1.778,0.67" /><path
         id="path32"
         style="fill:#2e3192;fill-opacity:1;fill-rule:nonzero;stroke:none"
         d="m 880.176,2385.35 c 11.054,2.25 12.051,-1.4 14.316,-8.78 l 16.028,-52.25 c 2.261,-7.38 3.511,-10.96 -6.907,-15.28 l -2.773,-1.14 1.515,-4.92 c 2.965,0.91 5.958,1.83 8.883,2.87 3.071,1.08 6.262,2.21 9.36,3.15 l 10.347,3.2 c 3.11,0.94 6.391,1.8 9.543,2.63 2.996,0.78 5.977,1.69 8.946,2.61 l -1.504,4.91 -2.93,-0.6 c -11.047,-2.27 -12.031,1.39 -14.297,8.77 l -7.265,23.66 38.808,11.91 7.266,-23.67 c 2.265,-7.37 3.508,-10.96 -6.922,-15.28 l -2.746,-1.15 1.504,-4.9 c 2.961,0.91 5.937,1.82 8.867,2.87 3.066,1.09 6.262,2.2 9.363,3.15 l 10.344,3.18 c 3.113,0.96 6.387,1.81 9.531,2.64 3.007,0.8 5.997,1.7 8.967,2.61 l -1.52,4.91 -2.92,-0.61 c -11.05,-2.25 -12.027,1.41 -14.292,8.77 l -16.036,52.27 c -2.265,7.37 -3.507,10.94 6.907,15.28 l 2.769,1.13 -1.519,4.91 c -2.969,-0.9 -5.942,-1.83 -8.887,-2.87 -3.051,-1.07 -6.242,-2.21 -9.367,-3.15 l -10.34,-3.18 c -3.098,-0.95 -6.367,-1.82 -9.516,-2.64 -3.015,-0.79 -5.984,-1.7 -8.953,-2.61 l 1.504,-4.92 2.91,0.62 c 11.074,2.26 12.039,-1.39 14.317,-8.77 l 6.789,-22.13 -38.813,-11.91 -6.785,22.13 c -2.273,7.36 -3.508,10.95 6.902,15.29 l 2.778,1.13 -1.504,4.9 c -2.981,-0.91 -5.949,-1.82 -8.899,-2.85 -3.066,-1.09 -6.242,-2.22 -9.367,-3.16 l -10.348,-3.19 c -3.085,-0.96 -6.378,-1.81 -9.523,-2.63 -2.996,-0.79 -5.984,-1.7 -8.965,-2.61 l 1.524,-4.92 2.91,0.62" /><path
         id="path34"
         style="fill:#2e3192;fill-opacity:1;fill-rule:nonzero;stroke:none"
         d="m 1068.58,2436.17 c 11.25,0.6 11.7,-3.17 12.84,-10.79 l 8.15,-54.04 c 1.16,-7.63 1.87,-11.36 -9.07,-14.1 l -2.91,-0.72 0.77,-5.07 c 3.08,0.45 6.14,0.93 9.21,1.51 3.18,0.63 6.51,1.27 9.72,1.76 l 10.71,1.61 c 3.21,0.49 6.55,0.85 9.79,1.21 3.11,0.32 6.18,0.78 9.26,1.26 l -0.77,5.08 -2.98,-0.18 c -6.63,-0.47 -11.13,-0.58 -12.62,9.17 l -0.24,1.61 35.86,50.71 6.7,-44.29 c 1.14,-7.62 1.84,-11.34 -9.09,-14.1 l -2.92,-0.71 0.78,-5.07 c 3.07,0.46 6.14,0.93 9.21,1.53 3.19,0.61 6.51,1.24 9.73,1.74 l 10.69,1.6 c 3.21,0.49 6.58,0.86 9.81,1.22 3.1,0.34 6.18,0.78 9.24,1.26 l -0.76,5.07 -2.99,-0.18 c -11.26,-0.6 -11.69,3.16 -12.84,10.8 l -8.16,54.05 c -1.15,7.61 -1.85,11.34 9.09,14.09 l 2.92,0.71 -0.78,5.09 c -3.07,-0.48 -6.15,-0.94 -9.22,-1.54 -3.17,-0.61 -6.5,-1.27 -9.71,-1.74 l -10.71,-1.62 c -3.21,-0.49 -6.58,-0.86 -9.81,-1.19 -3.1,-0.35 -6.17,-0.8 -9.24,-1.27 l 0.76,-5.08 2.99,0.17 c 6.62,0.46 11.12,0.72 12.68,-9.71 l 0.16,-1.06 -35.85,-50.85 -6.69,44.41 c -1.14,7.64 -1.84,11.35 9.1,14.11 l 2.91,0.71 -0.77,5.07 c -3.09,-0.45 -6.17,-0.91 -9.21,-1.52 -3.19,-0.62 -6.53,-1.25 -9.74,-1.74 l -10.69,-1.61 c -3.22,-0.49 -6.59,-0.85 -9.81,-1.21 -3.1,-0.33 -6.18,-0.79 -9.25,-1.27 l 0.78,-5.07 2.97,0.18" /><path
         id="path36"
         style="fill:#2e3192;fill-opacity:1;fill-rule:nonzero;stroke:none"
         d="m 1318.93,2469.99 c 17.05,-0.05 25.86,7.9 25.87,14.53 0.02,4.73 -2.94,8.93 -7.95,8.95 -4.19,0.02 -7.57,-2.68 -7.58,-6.19 0,-0.96 0.39,-2.05 0.93,-2.85 0.68,-0.96 1.75,-1.77 1.75,-2.85 -0.01,-2.56 -4.75,-6.34 -13.01,-6.31 -8.24,0.03 -12.96,3.83 -12.95,6.39 0,1.07 1.08,1.9 1.75,2.84 0.54,0.8 0.96,1.89 0.96,2.84 0.02,3.51 -3.37,6.22 -7.56,6.24 -5.01,0.02 -7.99,-4.16 -8,-8.9 -0.01,-6.64 8.74,-14.63 25.79,-14.69" /><path
         id="path38"
         style="fill:#2e3192;fill-opacity:1;fill-rule:nonzero;stroke:none"
         d="m 1281.15,2373.93 10.84,-0.03 c 3.23,-0.01 6.62,-0.15 9.87,-0.31 3.11,-0.14 6.23,-0.16 9.33,-0.16 l 0.02,5.14 -2.98,0.29 c -6.64,0.55 -11.09,1.12 -11.05,10.99 v 1.61 l 43.15,44.65 -0.13,-44.77 c -0.03,-7.71 0.08,-11.5 -11.13,-12.55 l -2.97,-0.27 -0.04,-5.13 c 3.13,-0.01 6.23,-0.03 9.36,0.09 3.23,0.13 6.61,0.27 9.86,0.25 l 10.82,-0.03 c 3.26,-0.01 6.62,-0.15 9.88,-0.31 3.1,-0.13 6.21,-0.15 9.34,-0.16 l 0.01,5.13 -2.99,0.3 c -11.22,1.1 -11.06,4.91 -11.04,12.61 l 0.16,54.65 c 0.03,7.71 -0.09,11.5 11.12,12.55 l 3,0.25 0.02,5.14 c -3.12,0 -6.23,0.03 -9.35,-0.1 -3.25,-0.12 -6.63,-0.24 -9.88,-0.24 l -10.81,0.03 c -3.25,0.01 -6.63,0.16 -9.88,0.31 -3.1,0.14 -6.22,0.14 -9.33,0.16 l -0.02,-5.15 2.98,-0.26 c 6.63,-0.57 11.09,-1 11.04,-11.54 l 0.02,-1.08 -43.16,-44.79 0.13,44.91 c 0.02,7.71 -0.1,11.5 11.14,12.54 l 2.97,0.27 0.01,5.14 c -3.1,0.01 -6.22,0.02 -9.33,-0.1 -3.24,-0.12 -6.62,-0.25 -9.86,-0.25 l -10.83,0.05 c -3.26,-0.01 -6.64,0.15 -9.88,0.29 -3.11,0.15 -6.22,0.15 -9.33,0.16 l -0.02,-5.15 2.98,-0.27 c 11.22,-1.11 11.07,-4.9 11.06,-12.61 l -0.18,-54.64 c -0.02,-7.72 0.1,-11.5 -11.13,-12.56 l -2.98,-0.26 -0.01,-5.13 c 3.1,-0.02 6.22,-0.04 9.34,0.09 3.24,0.12 6.63,0.27 9.86,0.25" /><path
         id="path40"
         style="fill:#2e3192;fill-opacity:1;fill-rule:nonzero;stroke:none"
         d="m 1560.85,2346.76 c 15.7,-3.52 25.52,9.97 36.12,22.72 l 19.73,23.77 c 16.1,19.28 20.64,25.36 28.84,24.21 l 1.13,5.02 -16.36,3.23 c -4.37,0.84 -9.87,2.35 -13.64,3.47 l -1.11,-5.02 c 7.77,-1.19 9.24,-5.13 8.66,-7.77 -0.82,-3.69 -4.91,-8.33 -25.57,-33.13 l -10.34,33.8 c -0.64,2.08 -1.19,5.81 -0.76,7.8 1,4.48 5.39,3.65 9.18,3.22 l 2.18,-0.21 1.12,5.01 -22.29,4.56 c -6.51,1.32 -15.44,3.59 -21.06,5.11 l -1.11,-5.01 c 5.34,-2.17 8.99,-6.31 11,-12.86 l 17.71,-58.05 -2.82,-3.25 c -2.43,-2.78 -5.7,-6.92 -9,-6.18 -1.72,0.39 -2.78,2.41 -4.21,4.12 -0.96,1.32 -2.47,3.19 -5.39,3.85 -5.42,1.21 -10.31,-1.45 -11.44,-6.61 -1.08,-4.74 1.61,-10.07 9.43,-11.8" /><path
         id="path42"
         style="fill:#2e3192;fill-opacity:1;fill-rule:nonzero;stroke:none"
         d="m 1708.42,2309.29 10.12,-3.79 c 3.06,-1.15 6.17,-2.46 9.17,-3.71 2.86,-1.22 5.79,-2.32 8.69,-3.41 l 1.81,4.81 -2.7,1.31 c -10.12,4.93 -8.69,8.46 -5.98,15.66 l 8.68,23.2 38,-14.25 -8.67,-23.18 c -2.71,-7.22 -3.91,-10.81 -14.8,-7.88 l -2.88,0.79 -1.81,-4.82 c 2.93,-1.09 5.83,-2.18 8.8,-3.14 3.07,-1.02 6.29,-2.08 9.33,-3.21 l 10.15,-3.8 c 3.03,-1.14 6.15,-2.45 9.14,-3.71 2.87,-1.22 5.79,-2.31 8.7,-3.39 l 1.81,4.8 -2.71,1.3 c -10.13,4.96 -8.67,8.46 -5.98,15.67 l 19.17,51.17 c 2.7,7.23 3.9,10.81 14.79,7.9 l 2.9,-0.79 1.8,4.83 c -2.93,1.07 -5.84,2.17 -8.8,3.13 -3.09,1.02 -6.31,2.08 -9.34,3.2 l -10.13,3.81 c -3.04,1.13 -6.17,2.44 -9.15,3.73 -2.89,1.2 -5.8,2.29 -8.7,3.38 l -1.8,-4.81 2.69,-1.3 c 10.14,-4.94 8.68,-8.46 5.99,-15.67 l -8.14,-21.66 -37.98,14.23 8.1,21.65 c 2.71,7.23 3.91,10.82 14.81,7.89 l 2.87,-0.79 1.8,4.82 c -2.92,1.09 -5.83,2.18 -8.79,3.14 -3.08,1.03 -6.29,2.08 -9.35,3.21 l -10.12,3.8 c -3.03,1.14 -6.16,2.45 -9.17,3.72 -2.85,1.21 -5.78,2.3 -8.68,3.39 l -1.8,-4.82 2.69,-1.29 c 10.14,-4.94 8.68,-8.44 5.98,-15.68 l -19.15,-51.17 c -2.71,-7.22 -3.91,-10.81 -14.81,-7.89 l -2.88,0.79 -1.81,-4.82 c 2.91,-1.08 5.83,-2.17 8.78,-3.13 3.12,-1.03 6.32,-2.09 9.36,-3.22" /><path
         id="path44"
         style="fill:#2e3192;fill-opacity:1;fill-rule:nonzero;stroke:none"
         d="m 1876.01,2237.32 9.6,-5 c 2.88,-1.52 5.83,-3.21 8.64,-4.84 2.69,-1.55 5.45,-3 8.21,-4.44 l 2.38,4.56 -2.52,1.63 c -9.46,6.16 -7.57,9.46 -3.99,16.29 l 25.31,48.48 c 3.57,6.85 5.21,10.26 15.68,6.02 l 2.76,-1.13 2.37,4.55 c -2.74,1.44 -5.51,2.89 -8.34,4.2 -2.93,1.4 -5.99,2.84 -8.86,4.33 l -9.62,5.02 c -2.88,1.51 -5.8,3.2 -8.64,4.82 -2.69,1.57 -5.44,3 -8.21,4.45 l -2.37,-4.56 2.5,-1.61 c 9.46,-6.16 7.6,-9.48 4.02,-16.32 l -25.33,-48.48 c -3.57,-6.83 -5.21,-10.25 -15.66,-6 l -2.77,1.14 -2.38,-4.57 c 2.74,-1.43 5.51,-2.87 8.34,-4.2 2.94,-1.39 6,-2.84 8.88,-4.34" /><path
         id="path46"
         style="fill:#2e3192;fill-opacity:1;fill-rule:nonzero;stroke:none"
         d="m 2003.57,2182.58 14.88,21.99 5.04,-3.43 c 16.49,-11.15 8.56,-23.62 5.68,-27.87 -9.56,-14.13 -19.89,-8.14 -22.58,-6.31 -9.08,6.15 -4.09,14.02 -3.02,15.62 z m 35.13,51.93 c 1.38,2.02 2.01,3.22 4.71,1.4 l 2.24,-1.52 c 7.98,-5.39 9.8,-13.81 3.8,-22.66 -9.41,-13.93 -20,-7.1 -23.92,-4.44 l -3.59,2.42 z m -3.19,-83.52 c 5.36,1.14 10.38,4.44 13.48,9.04 9.12,13.45 -0.86,28.69 -11.25,36.55 14.75,-7.2 26.05,-3.56 31.36,4.3 2.57,3.82 3.41,8.64 2.75,13.01 -1.71,11.48 -14.07,19.82 -20.35,24.08 -6.62,4.48 -13.65,8.58 -20.18,13.16 -8.25,5.73 -4.47,3.33 -16.17,11.42 l -2.87,-4.27 2.3,-1.89 c 8.7,-7.2 6.47,-10.26 2.14,-16.66 l -30.64,-45.33 c -4.33,-6.38 -6.34,-9.61 -16.27,-4.21 l -2.62,1.44 -2.87,-4.26 c 4.32,-2.76 12.66,-8.08 18.74,-12.17 15.61,-10.75 35.34,-28.01 52.45,-24.21" /><path
         id="path48"
         style="fill:#2e3192;fill-opacity:1;fill-rule:nonzero;stroke:none"
         d="m 2153.48,2041.32 5.34,6.47 c 4.09,5.04 9.05,9.87 12.51,12.96 l -3.96,3.49 c -13.4,-12.73 -25.93,-3.83 -31.33,0.91 -8.73,7.69 -10.79,12.95 0.32,25.53 l 11.81,13.41 2.54,-2.24 c 6.4,-5.63 8.27,-14.16 1.56,-21.58 l 3.94,-3.49 11.79,13.97 12.39,13.44 -3.96,3.5 c -6.52,-7.61 -15.2,-6.8 -21.59,-1.17 l -2.55,2.24 17.99,20.4 c 4.39,4.98 4.55,5.37 9.22,1.25 l 2.26,-1.96 c 6.89,-6.09 17.69,-16.35 8.02,-30.18 l 4.38,-3.86 c 4.23,5.64 7.19,9.19 15.02,18.68 l -42.11,36.59 c -4.96,4.38 -0.22,0.55 -14.14,13.01 l -3.39,-3.86 2.04,-2.17 c 7.72,-8.25 5.1,-11 0,-16.77 l -36.16,-41.03 c -5.1,-5.78 -7.5,-8.73 -16.65,-2.09 l -2.42,1.75 -3.39,-3.86 c 14.2,-12.34 9.4,-7.75 14.68,-12.4 l 45.84,-40.94" /><path
         id="path50"
         style="fill:#2e3192;fill-opacity:1;fill-rule:nonzero;stroke:none"
         d="m 2288.41,2015.86 c 3.25,2.87 4.11,2.73 7.5,-1.14 11.09,-12.58 2.46,-21.83 -1.6,-25.4 -11.99,-10.55 -21.99,-3.31 -27.09,2.47 -0.89,1.01 -1.68,2.13 -2.47,3.24 z m -76.7,-33.11 c 2.25,-2.35 4.59,-4.78 6.72,-7.23 l 7.18,-8.12 c 2.31,-2.64 4.55,-5.37 6.77,-8.12 2.13,-2.62 4.28,-5.05 6.53,-7.6 l 3.84,3.41 -1.76,2.4 c -8.22,11.17 -3.56,13.47 1.21,17.68 l 17.77,15.64 5.55,-6.3 c 23.27,-26.39 38.91,-16.74 44.41,-11.91 8.03,7.07 12.87,21.62 -5.05,41.36 l -16.59,18.22 c -3.69,3.98 -6.6,7.89 -14.79,17.43 l -3.87,-3.39 1.77,-2.42 c 6.59,-9.14 3.67,-11.54 -2.12,-16.65 l -41.04,-36.14 c -5.78,-5.1 -8.54,-7.71 -16.78,0 l -2.16,2.07 -3.86,-3.4 c 2.06,-2.35 4.1,-4.68 6.27,-6.93" /><path
         id="path52"
         style="fill:#2e3192;fill-opacity:1;fill-rule:nonzero;stroke:none"
         d="m 2356,1809.63 -5,-6.63 3.32,-4.96 13.22,9.23 12.4,8.01 -3.33,4.94 c -10.76,-5.12 -26.75,-6.57 -35.84,6.9 -5.57,8.31 -12.22,27.36 16.32,46.58 25.72,17.31 42.14,9.41 48.78,-0.46 4.1,-6.07 6.11,-13.68 2.51,-23.13 -1.48,-4.1 -3.75,-7.76 -6.97,-11.22 l 3.4,-5.04 23.26,17.1 -3.34,4.95 -7.65,-2.7 c 0.66,12.36 -3.57,20.59 -7.43,26.32 -15.35,22.8 -43.55,29.28 -66.58,13.78 -23.36,-15.73 -27.18,-42.29 -11.67,-65.31 4.99,-7.43 12.57,-15.04 24.6,-18.36" /><path
         id="path54"
         style="fill:#2e3192;fill-opacity:1;fill-rule:nonzero;stroke:none"
         d="m 2462.69,1753.26 -49.21,-23.81 c -6.95,-3.36 -10.31,-5.14 -16.17,4.51 l -1.54,2.56 -4.63,-2.23 c 1.36,-2.81 2.72,-5.61 4.2,-8.35 1.53,-2.86 3.12,-5.85 4.54,-8.78 l 4.71,-9.74 c 1.42,-2.91 2.77,-6.02 4.05,-9.01 1.24,-2.86 2.61,-5.67 3.96,-8.47 l 4.63,2.24 -1.06,2.8 c -2.41,6.2 -3.86,10.47 5.03,14.76 l 1.48,0.71 59.04,-19.22 -40.3,-19.52 c -6.95,-3.34 -10.31,-5.12 -16.17,4.51 l -1.53,2.57 -4.65,-2.25 c 1.37,-2.79 2.73,-5.59 4.21,-8.34 1.52,-2.87 3.11,-5.85 4.54,-8.78 l 4.69,-9.74 c 1.44,-2.93 2.77,-6.03 4.07,-9.01 1.24,-2.86 2.58,-5.65 3.95,-8.47 l 4.64,2.25 -1.06,2.8 c -3.9,10.58 -0.45,12.11 6.5,15.46 l 49.22,23.82 c 6.93,3.36 10.29,5.14 16.16,-4.51 l 1.53,-2.57 4.62,2.25 c -1.35,2.8 -2.71,5.62 -4.19,8.34 -1.52,2.87 -3.12,5.85 -4.54,8.77 l -4.71,9.76 c -1.41,2.91 -2.78,6.02 -4.05,9 -1.24,2.85 -2.61,5.67 -3.95,8.47 l -4.64,-2.24 1.06,-2.8 c 2.41,-6.2 3.97,-10.4 -5.53,-15 l -0.96,-0.47 -59.2,19.17 40.45,19.58 c 6.94,3.33 10.3,5.11 16.17,-4.51 l 1.53,-2.57 4.64,2.25 c -1.37,2.79 -2.73,5.59 -4.18,8.34 -1.55,2.87 -3.15,5.84 -4.58,8.77 l -4.7,9.73 c -1.42,2.94 -2.75,6.05 -4.05,9.02 -1.24,2.86 -2.61,5.66 -3.95,8.46 l -4.63,-2.24 1.05,-2.8 c 3.93,-10.58 0.45,-12.1 -6.49,-15.47" /><path
         id="path56"
         style="fill:#2e3192;fill-opacity:1;fill-rule:nonzero;stroke:none"
         d="m 2563.54,1534.74 c 4.72,-14.83 0.72,-22.78 -7.77,-27.34 l -2.68,-1.42 1.69,-5.3 c 7.07,2.83 11.79,4.47 24.3,8.89 l -9.62,28.9 -7.98,25.04 -8.87,29.15 c -12.77,-3.64 -17.58,-5.03 -24.95,-6.82 l 1.66,-5.28 3.01,0.37 c 9.56,1.21 17.43,-2.95 22.16,-17.79 1.44,-4.52 0.03,-4.55 -3.59,-5.71 l -57.54,-18.32 c -7.34,-2.36 -10.92,-3.62 -15.37,6.75 l -1.16,2.75 -4.92,-1.56 c 0.96,-2.97 1.9,-5.94 2.97,-8.85 1.14,-3.05 2.29,-6.25 3.26,-9.35 l 3.29,-10.32 c 1,-3.1 1.9,-6.36 2.75,-9.49 0.82,-3.01 1.77,-5.97 2.71,-8.95 l 4.91,1.57 -0.66,2.92 c -2.37,11.04 1.28,12.05 8.64,14.39 l 57.53,18.33 c 3.63,1.17 4.78,1.97 6.23,-2.56" /><path
         id="path58"
         style="fill:#2e3192;fill-opacity:1;fill-rule:nonzero;stroke:none"
         d="m 2549.71,1342.92 c -18.38,-1.75 -22.77,12.97 -24.08,20.01 -2.11,11.45 -0.49,16.82 15.99,19.89 l 17.56,3.24 0.61,-3.31 c 1.56,-8.38 -2.23,-16.24 -12.09,-17.93 l 0.96,-5.19 17.88,3.74 18.03,2.94 -0.96,5.18 c -9.81,-1.96 -16.15,4.02 -17.71,12.39 l -0.61,3.33 26.72,4.94 c 6.53,1.22 6.9,1.43 8.04,-4.7 l 0.54,-2.92 c 1.68,-9.05 3.84,-23.77 -12.31,-28.69 l 1.08,-5.72 c 6.81,1.83 11.31,2.8 23.34,5.44 l -10.56,54.72 c -1.22,6.49 0.15,0.58 -3.12,18.95 l -5.04,-0.93 0.28,-2.99 c 0.97,-11.22 -2.78,-11.78 -10.34,-13.19 l -53.72,-9.95 c -7.6,-1.42 -11.28,-2.25 -14.39,8.6 l -0.82,2.87 -5.05,-0.94 c 3.57,-18.46 2.62,-11.88 3.9,-18.8 l 10.8,-60.44 8.19,1.79 c 6.34,1.45 13.22,2.18 17.83,2.47 l -0.95,5.2" /><path
         id="path60"
         style="fill:#2e3192;fill-opacity:1;fill-rule:nonzero;stroke:none"
         d="m 2627.01,1208.91 -1.46,26.22 -1.31,30.43 c -13.26,-0.34 -18.28,-0.49 -25.89,-0.38 l 0.32,-5.53 3.01,-0.37 c 9.56,-1.23 16.14,-7.22 17,-22.79 0.28,-4.72 -1.1,-4.38 -4.89,-4.59 l -60.28,-3.39 c -7.71,-0.43 -11.49,-0.78 -13.19,10.37 l -0.44,2.96 -5.14,-0.3 c 0.18,-3.09 0.36,-6.21 0.66,-9.3 0.32,-3.25 0.66,-6.61 0.82,-9.86 l 0.63,-10.81 c 0.17,-3.25 0.22,-6.64 0.27,-9.89 0.05,-3.11 0.22,-6.21 0.39,-9.34 l 5.14,0.3 0.09,3 c 0.46,11.27 4.25,11.35 11.96,11.78 l 60.27,3.38 c 3.78,0.23 5.11,0.7 5.38,-4.04 0.87,-15.53 -4.99,-22.23 -14.33,-24.52 l -2.96,-0.72 0.31,-5.53 c 7.55,0.96 12.53,1.37 25.75,2.54 l -2.11,30.38" /><path
         id="path62"
         style="fill:#2e3192;fill-opacity:1;fill-rule:nonzero;stroke:none"
         d="m 2278.96,1150.31 c 0,531.63 -432.5,964.14 -964.15,964.14 -531.595,0 -964.087,-432.51 -964.087,-964.14 0,-137.17 28.972,-267.65 80.84,-385.888 l 9.46,31.066 c -44.675,109.614 -69.492,229.342 -69.492,354.822 0,520.15 423.164,943.32 943.279,943.32 520.16,0 943.35,-423.17 943.35,-943.32 0,-123.86 -24.23,-242.099 -67.81,-350.56 l 9.61,-31.281 c 50.74,117.172 79,246.241 79,381.841" /><path
         id="path64"
         style="fill:#2e3192;fill-opacity:1;fill-rule:nonzero;stroke:none"
         d="m 2157.85,524.109 -68.89,52.211 -5.5,4.18 -6.18,-8.129 c -3.39,-2.859 -18.28,-15.039 -43.09,-31.332 -17.98,-11.809 -41.09,-25.707 -69.08,-39.848 -5.42,-2.742 -10.96,-5.492 -16.73,-8.222 89.55,86.543 160.81,190.543 208.69,305.179 l 13.54,-44.058 9.04,-29.418 11.19,-36.442 104,59 C 2261.46,666.051 2217.93,589.309 2165.29,518.469 Z M 452.02,720.82 l 8.898,29.219 13.379,44.012 C 522.234,681.012 592.922,578.41 681.348,492.949 c -5.723,2.711 -11.219,5.43 -16.602,8.153 -28.058,14.179 -51.25,28.117 -69.277,39.949 -24.824,16.32 -39.699,28.5 -43.067,31.328 l -6.562,8.66 -5.52,-4.18 -68.875,-52.23 -7.453,-5.649 c -52.613,70.891 -96.14,147.731 -129.519,229.09 L 442.148,688.332 Z M 1909.19,451.129 c 0.92,0.371 1.87,0.723 2.78,1.082 25.93,10.277 49.29,21.121 69.97,31.789 15.12,7.801 28.81,15.48 40.99,22.781 -27.83,-30.793 -57.44,-59.461 -88.48,-86.051 l -9.26,11.149 -15.39,18.5 z m -1189.268,-0.668 -15.43,-18.582 -9.265,-11.16 c -31.055,26.601 -60.657,55.269 -88.508,86.082 12.176,-7.301 25.879,-14.992 40.996,-22.801 20.762,-10.711 44.219,-21.578 70.273,-31.898 0.821,-0.34 1.668,-0.653 2.5,-0.973 z M 1314.84,22.8984 c -350.922,0 -674.742,159.2926 -890.25,437.4606 l 48.984,37.153 11.594,8.777 56.309,42.711 c 36.816,-47.379 77.3,-90.711 120.82,-129.871 C 840.344,258.93 1069.98,169.68 1314.84,169.68 c 244.83,0 474.49,89.25 652.52,249.441 43.36,39.02 83.72,82.18 120.42,129.359 l 56.35,-42.71 11.28,-8.551 49.29,-37.348 C 1989.16,182.012 1665.48,22.8984 1314.84,22.8984 Z m 879.27,732.6716 -9.29,30.219 -25.29,82.34 -11.81,-31.43 c -54.18,-144.258 -145.78,-272.84 -264.83,-371.82 l -8.81,-7.32 4.98,-6 13.17,-15.84 15.37,-18.508 9.28,-11.18 C 1748.43,268.582 1538.09,192.57 1314.84,192.57 c -223.28,0 -433.602,76.012 -602.059,213.45 l 9.289,11.191 15.43,18.57 13.105,15.778 4.969,6 -8.789,7.32 C 629.016,562.809 537.961,689.941 483.484,832.52 l -11.914,31.21 -24.968,-82.082 -9.168,-30.168 -8.95,-29.371 -137.976,76.539 10.945,-29.136 C 336.895,675.148 385.496,586.32 445.754,505.141 l -53.305,-40.411 6.914,-9.121 C 619.219,166.07 952.891,0 1314.84,0 c 361.66,0 695.2,165.879 915.07,455.102 l 6.95,9.136 -53.32,40.403 c 60.4,81.281 109.06,170.148 144.52,264.488 l 11.12,29.59 -134.82,-76.508 -10.25,33.359" /><path
         id="path66"
         style="fill:#2e3192;fill-opacity:1;fill-rule:nonzero;stroke:none"
         d="m 321.992,946.059 c 0.371,-2.489 -1.316,-5.278 -2.578,-7.778 -1.094,-2.011 -3.351,-5.57 -2.539,-11.25 1.348,-9.293 8.895,-13.519 15.703,-12.543 6.797,0.981 15.117,7.512 13.145,21.114 -1.016,7.027 -4.563,17.16 -16.231,25.898 -24.402,18.219 -68.887,20.129 -108.445,16.711 l -20.578,-1.813 c -2.293,-0.109 -6.922,-0.089 -8.035,7.622 l -3.032,20.87 c -0.449,3.17 -0.593,5.69 5.539,6.58 l 104.297,15.09 c 12.918,1.87 19.239,3.02 23.758,-15.54 l 1.184,-4.93 8.613,1.25 c -0.742,5.22 -1.492,10.43 -2.488,15.62 -0.996,5.41 -2.063,11.04 -2.844,16.48 l -2.617,18.14 c -0.789,5.44 -1.387,11.14 -1.946,16.62 -0.527,5.24 -1.277,10.45 -2.031,15.67 l -8.633,-1.25 0.278,-5.05 c 0.906,-19.07 -5.481,-19.77 -18.391,-21.64 l -91.601,-13.25 c -12.93,-1.87 -19.239,-3.02 -23.782,15.53 l -1.179,4.93 -8.606,-1.24 c 0.754,-5.22 1.516,-10.43 2.485,-15.61 1.023,-5.41 2.058,-11.05 2.847,-16.49 l 9.426,-65.07 c 0.715,-4.992 1.301,-10.691 4.656,-37.05 l 8.625,1.242 -0.105,3.91 c -0.586,18.438 8.426,24.84 39.629,26.809 39.461,2.461 56.355,-2.27 70.332,-7.653 13.699,-5.199 14.922,-10.34 15.144,-11.929" /><path
         id="path68"
         style="fill:#2e3192;fill-opacity:1;fill-rule:nonzero;stroke:none"
         d="m 244.336,1189.58 c 0.344,9.15 0.84,16 7.527,22.85 8.11,8.16 19.59,9.09 27.832,8.77 27.688,-1.07 32.754,-18 32.317,-29.67 -0.625,-15.78 -14.61,-15.93 -19.414,-15.74 l -48.496,1.88 c -0.086,3.9 0.078,8.02 0.234,11.91 z m -68.008,-63.81 c 1.445,13.46 4.375,18.62 22,17.93 l 92.895,-3.6 c 17.617,-0.69 20.144,-6.05 20.547,-19.59 l 0.093,-3.2 8.696,-0.34 c 0.054,13.06 0.359,26.79 0.859,39.83 0.652,16.71 1.797,28.34 2.234,39.78 1.028,26.55 -2.832,62.9 -41.257,64.39 -11.672,0.45 -29.692,-3.21 -40.61,-24.78 -6.961,-13.7 -7.566,-29.49 -8.062,-42.54 -0.215,-5.26 -0.176,-10.29 -0.137,-15.57 l -33.879,1.32 c -17.617,0.67 -20.144,6.05 -20.535,19.58 l -0.109,3.21 -8.711,0.34 c -0.047,-7.33 -0.071,-19.94 -0.372,-27.71 -0.167,-4.12 -0.3,-8.01 -0.468,-12.13 -0.176,-4.12 -0.313,-8.01 -0.481,-12.13 -0.301,-7.77 -1.25,-20.34 -1.758,-27.65 l 8.696,-0.34 0.359,3.2" /><path
         id="path70"
         style="fill:#2e3192;fill-opacity:1;fill-rule:nonzero;stroke:none"
         d="m 312.285,1353.79 -43.879,9.47 2.18,10.07 c 7.09,32.9 31.641,28.31 40.137,26.48 28.203,-6.08 25.3,-26.07 24.148,-31.44 -3.902,-18.13 -19.461,-15.25 -22.586,-14.58 z m -52.629,18.85 -1.551,-7.16 -49.46,10.67 c -4.028,0.86 -6.321,1.12 -5.161,6.49 l 0.969,4.48 c 3.438,15.9 15.496,24.07 33.184,20.25 27.761,-5.98 23.711,-26.9 22.019,-34.73 z m 61.34,-81.63 8.508,-1.83 c 1.609,8.55 4.676,24.98 7.305,37.07 6.98,31.29 21.609,73.11 4.863,97.57 -5.141,7.67 -13.488,13.46 -22.668,15.43 -26.856,5.79 -44.484,-19.45 -50.242,-40.7 1.98,27.69 -10.852,43.1 -26.528,46.48 -7.605,1.65 -15.711,-0.12 -22.156,-3.89 -16.894,-9.94 -22.207,-34.56 -24.914,-47.1 -2.84,-13.2 -4.844,-26.82 -7.93,-39.99 -3.777,-16.51 -2.41,-9.08 -7.703,-32.54 l 8.496,-1.83 1.512,4.83 c 5.793,18.19 12.016,16.62 24.785,13.87 l 90.434,-19.5 c 12.762,-2.76 19.058,-3.89 16.863,-22.85 l -0.625,-5.02" /><path
         id="path72"
         style="fill:#2e3192;fill-opacity:1;fill-rule:nonzero;stroke:none"
         d="m 364.238,1468.19 -1.347,-4.88 8.156,-3.06 c 1.836,4.94 3.687,9.86 5.332,14.87 1.707,5.23 3.504,10.67 5.445,15.81 l 6.43,17.15 c 1.922,5.15 4.156,10.42 6.316,15.49 2.063,4.84 3.907,9.78 5.75,14.7 l -8.14,3.07 -2.2,-4.56 c -8.398,-17.14 -14.316,-14.68 -26.535,-10.1 l -86.59,32.51 c -12.226,4.59 -18.292,6.63 -13.339,25.06 l 1.339,4.88 -8.144,3.05 c -1.848,-4.93 -3.703,-9.86 -5.332,-14.87 -1.711,-5.22 -3.52,-10.66 -5.441,-15.8 l -6.446,-17.16 c -1.926,-5.14 -4.16,-10.41 -6.301,-15.47 -2.07,-4.86 -3.921,-9.79 -5.769,-14.72 l 8.152,-3.05 2.192,4.55 c 8.394,17.14 14.324,14.68 26.543,10.09 l 86.597,-32.51 c 12.207,-4.58 18.293,-6.62 13.332,-25.05" /><path
         id="path74"
         style="fill:#2e3192;fill-opacity:1;fill-rule:nonzero;stroke:none"
         d="m 424.609,1677.23 c 25.246,-13.98 16.668,-32.27 14.004,-37.09 -8.972,-16.22 -23.027,-8.96 -25.84,-7.41 l -39.25,21.76 4.985,9.01 c 16.316,29.45 38.496,17.95 46.101,13.73 z m -56.757,-11.23 -3.555,-6.41 -44.27,24.53 c -3.589,1.99 -5.711,2.91 -3.054,7.71 l 2.238,4.01 c 7.859,14.22 21.785,18.55 37.613,9.78 24.848,-13.75 14.914,-32.6 11.028,-39.62 z m 4.289,74.34 c -6.821,3.78 -15.098,4.44 -22.356,2.69 -19.043,-4.63 -31.262,-26.65 -37.472,-37.87 -6.551,-11.83 -12.403,-24.29 -19.161,-36 -8.406,-14.71 -4.949,-7.99 -16.797,-28.91 l 7.61,-4.21 2.844,4.17 c 10.808,15.74 16.316,12.43 27.722,6.11 l 80.938,-44.84 c 11.426,-6.32 17.129,-9.24 9.519,-26.75 l -2.027,-4.63 7.613,-4.22 c 4.016,7.73 11.699,22.57 17.696,33.39 15.753,27.93 41.859,63.73 32.902,91.99 -2.688,8.83 -9.016,16.78 -17.219,21.34 -24.051,13.31 -48.223,-5.75 -59.883,-24.42 9.914,25.92 2.09,44.39 -11.929,52.16" /><path
         id="path76"
         style="fill:#2e3192;fill-opacity:1;fill-rule:nonzero;stroke:none"
         d="m 430.027,1882.04 c -29.304,-36.06 -25.894,-84.86 10.508,-114.46 36.945,-30.03 81.809,-23.13 111.399,13.28 9.543,11.72 18.132,27.75 17.586,48.84 l 13.195,-4.82 6.348,7.82 -21.426,16.83 -19.063,16.1 -6.367,-7.83 c 13.586,-14.87 23.816,-40.01 6.504,-61.32 -10.703,-13.15 -38.242,-33.24 -83.359,3.44 -40.672,33.08 -36.004,63.49 -23.289,79.12 7.792,9.6 19.109,16.62 36.16,15.45 7.351,-0.38 14.394,-2.26 21.574,-5.74 l 6.512,7.99 -39.129,29.15 -6.367,-7.81 8.14,-11.04 c -20.32,-5.02 -31.551,-15.95 -38.926,-25" /><path
         id="path78"
         style="fill:#2e3192;fill-opacity:1;fill-rule:nonzero;stroke:none"
         d="m 612.703,1959.43 c 6.938,6 12.277,10.31 21.84,10.1 11.504,-0.35 20.035,-8.11 25.43,-14.35 18.113,-20.97 9.215,-36.24 0.379,-43.88 -11.961,-10.33 -21.614,-0.21 -24.766,3.43 l -31.758,36.73 c 2.805,2.72 5.918,5.42 8.875,7.97 z m -70.762,36.33 c -3.132,-2.69 -6.062,-5.24 -9.187,-7.94 -5.879,-5.09 -15.723,-12.98 -21.414,-17.61 l 5.691,-6.57 2.578,1.91 c 10.829,8.15 16.602,9.51 28.133,-3.83 l 60.821,-70.36 c 11.515,-13.34 9.335,-18.86 -0.282,-28.4 l -2.285,-2.26 5.684,-6.59 c 9.59,8.88 19.836,18.04 29.715,26.58 12.648,10.93 21.925,18.05 30.609,25.54 20.098,17.38 44.031,45.03 18.863,74.14 -7.625,8.84 -22.605,19.51 -45.84,12.76 -14.754,-4.29 -26.707,-14.62 -36.609,-23.16 -3.965,-3.45 -7.637,-6.91 -11.465,-10.52 l -22.168,25.64 c -11.543,13.34 -9.347,18.87 0.281,28.39 l 2.258,2.27 -5.683,6.59 c -5.391,-4.96 -14.621,-13.55 -20.52,-18.64 -3.113,-2.7 -6.055,-5.24 -9.18,-7.94" /><path
         id="path80"
         style="fill:#2e3192;fill-opacity:1;fill-rule:nonzero;stroke:none"
         d="m 678.926,2105.67 c -4.656,-2.46 -9.207,-5.12 -13.75,-7.78 l 4.375,-7.52 4.59,2.15 c 17.343,8.01 20.379,2.35 26.972,-8.93 l 46.68,-79.92 c 6.57,-11.28 10.012,-16.71 -5.488,-27.87 l -4.121,-2.94 4.394,-7.52 c 4.551,2.66 9.094,5.32 13.535,8.17 4.629,2.96 9.461,6.05 14.219,8.83 l 15.813,9.24 c 4.753,2.78 9.812,5.47 14.683,8.04 4.66,2.46 9.223,5.12 13.762,7.77 l -4.387,7.52 -4.59,-2.14 c -17.332,-8.01 -20.379,-2.35 -26.968,8.92 l -22.18,37.99 7.129,4.16 c 8.308,4.85 16.23,6.29 31.367,-5.56 l 19.031,-14.89 c 12.231,-9.57 28.586,-22.57 53.711,-7.91 6.527,3.82 20.051,13.83 16.399,35.06 l -9.473,-1.03 c -0.02,-4.52 -0.496,-8.25 -4.258,-10.44 -6.719,-3.93 -16.894,2.6 -21.504,5.48 -32.695,19.65 -50.176,23.24 -66.472,17.96 l -0.332,0.6 c 3.562,5.26 6.355,12.73 3.386,34.62 -1.191,8.85 -4.101,22.01 3.223,26.29 2.773,1.61 6.406,0.82 10.312,0.97 2.246,0.24 4.981,0.53 7.957,2.27 6.528,3.81 11.145,11.8 6.172,20.32 -4.508,7.71 -13.277,11.86 -25.554,4.7 -21.973,-12.83 -18.907,-36.24 -16.321,-53.84 2.981,-19.21 5.766,-33.51 -11.05,-43.33 l -9.497,-5.54 -18.718,32.05 c -6.575,11.27 -10.008,16.7 5.476,27.87 l 4.121,2.94 -4.382,7.52 c -4.559,-2.66 -9.102,-5.31 -13.536,-8.16 -4.636,-2.98 -9.472,-6.07 -14.218,-8.84 l -15.821,-9.24 c -4.746,-2.78 -9.804,-5.47 -14.687,-8.04" /><path
         id="path82"
         style="fill:#2e3192;fill-opacity:1;fill-rule:nonzero;stroke:none"
         d="m 928.484,2128.18 2.368,58.52 37.957,-44.06 z m -5.996,101.51 -6.297,-124.18 c -0.898,-17.85 -0.957,-31.25 -17.253,-40.75 l 2.937,-8.19 c 4.785,2.2 13.477,5.81 21.973,8.61 l 30.625,10.26 -2.942,8.19 -5.476,-0.98 c -7.801,-1.35 -13.789,-2.27 -17.278,7.42 -2.234,6.25 -1.226,12.94 -0.972,20.34 l 0.3,5.95 48.301,17.33 5.11,-5.47 c 9.824,-10.35 12.234,-15.08 13.543,-18.74 2.714,-7.55 -4.969,-10.55 -9.461,-12.9 l -5.383,-2.65 2.93,-8.2 c 5.964,2.39 15.722,6.38 22.185,8.7 4.1,1.46 7.98,2.86 12.08,4.33 4.53,1.62 9.27,3.33 13.79,4.95 7.13,2.56 18.7,6.22 25.67,8.48 l -2.92,8.2 c -16.64,-5.24 -23.65,3.45 -32.26,13.24 l -88.631,99.84 -10.571,-3.78" /><path
         id="path84"
         style="fill:#2e3192;fill-opacity:1;fill-rule:nonzero;stroke:none"
         d="m 1314.26,2290.17 4.98,0.84 -0.68,8.68 c -5.25,-0.4 -10.49,-0.8 -15.73,-1.44 -5.47,-0.65 -11.16,-1.31 -16.64,-1.73 l -120.58,-9.27 c -5.48,-0.41 -11.22,-0.62 -16.71,-0.81 -5.27,-0.18 -10.52,-0.58 -15.78,-0.99 l 0.67,-8.68 5.06,-0.06 c 19.1,-0.38 19.35,-6.79 20.37,-19.81 l 7.07,-92.27 c 1,-13.01 1.72,-19.39 -17.1,-22.68 l -4.97,-0.83 0.66,-8.69 c 5.26,0.41 10.5,0.81 15.74,1.45 5.45,0.64 11.15,1.31 16.63,1.73 l 18.27,1.41 c 5.49,0.41 11.22,0.63 16.72,0.81 5.26,0.19 10.51,0.58 15.76,0.99 l -0.66,8.68 -5.06,0.07 c -19.1,0.37 -19.36,6.78 -20.36,19.81 l -7.51,97.74 c -1.08,14.16 4.28,13.19 11.58,13.76 l 41.57,3.18 c 7.31,0.57 12.45,2.33 13.54,-11.82 l 7.5,-97.76 c 1.01,-13 1.72,-19.38 -17.1,-22.67 l -4.98,-0.84 0.68,-8.68 c 5.25,0.41 10.51,0.81 15.73,1.44 5.46,0.65 11.15,1.31 16.63,1.73 l 18.27,1.42 c 5.49,0.41 11.22,0.62 16.7,0.82 5.28,0.17 10.54,0.57 15.78,0.97 l -0.65,8.69 -5.07,0.07 c -19.09,0.37 -19.36,6.78 -20.35,19.8 l -7.09,92.26 c -1.01,13.03 -1.71,19.4 17.11,22.68" /><path
         id="path86"
         style="fill:#2e3192;fill-opacity:1;fill-rule:nonzero;stroke:none"
         d="m 1409.69,2217.71 c 7.77,59.06 39.65,62.49 54.41,60.54 15.44,-2.03 45.61,-13.39 37.65,-73.82 -7.15,-54.28 -31.53,-65.63 -55.6,-62.46 -16.13,2.12 -44.49,14.87 -36.46,75.74 z m 33.72,-86.01 c 44.98,-5.93 92.07,16.53 98.53,65.6 5.57,42.24 -21.27,84.14 -75.56,91.28 -48.6,6.4 -91.17,-20.34 -97.31,-66.9 -6.22,-47.25 29.59,-84.09 74.34,-89.98" /><path
         id="path88"
         style="fill:#2e3192;fill-opacity:1;fill-rule:nonzero;stroke:none"
         d="m 1637.61,2242 3.52,-1.71 c 16.63,-7.93 18.19,-18.89 5.61,-47.49 -15.91,-36.18 -27.86,-49.01 -39.05,-58.95 -10.89,-9.8 -16.03,-8.51 -17.54,-7.99 -2.39,0.84 -4.09,3.6 -5.73,5.87 -1.29,1.9 -3.41,5.55 -8.83,7.41 -8.87,3.07 -16.1,-1.69 -18.34,-8.19 -2.25,-6.49 -0.26,-16.87 12.73,-21.36 6.71,-2.33 17.33,-3.82 30.44,2.55 27.38,13.29 49.47,51.94 64.59,88.63 l 7.83,19.11 c 0.95,2.08 3.11,6.19 10.47,3.64 l 19.9,-6.89 c 3.04,-1.04 5.33,-2.09 3.32,-7.93 l -34.45,-99.56 c -4.26,-12.33 -6.15,-18.46 -24.7,-13.98 l -4.92,1.22 -2.85,-8.23 c 4.99,-1.72 9.96,-3.44 15.01,-4.95 5.28,-1.58 10.75,-3.24 15.96,-5.03 l 17.3,-5.99 c 5.19,-1.8 10.52,-3.89 15.65,-5.91 4.9,-1.93 9.89,-3.66 14.86,-5.38 l 2.85,8.23 -4.61,2.08 c -17.36,7.94 -15.05,13.93 -10.79,26.27 l 30.26,87.42 c 4.26,12.34 6.14,18.47 24.7,13.99 l 4.92,-1.21 2.85,8.22 c -4.98,1.73 -9.96,3.44 -15.01,4.96 -5.27,1.57 -10.76,3.23 -15.94,5.03 l -62.11,21.49 c -4.78,1.64 -10.11,3.74 -35.06,12.86 l -2.84,-8.23" /><path
         id="path90"
         style="fill:#2e3192;fill-opacity:1;fill-rule:nonzero;stroke:none"
         d="m 1811.7,2174.08 4.24,-2.78 c 15.91,-10.55 12.69,-16.1 6.56,-27.63 L 1778.99,2062 c -6.14,-11.54 -8.95,-17.3 -26.6,-9.98 l -4.67,1.96 -4.1,-7.68 c 4.67,-2.47 9.32,-4.95 14.08,-7.23 4.96,-2.38 10.11,-4.87 14.96,-7.46 l 16.18,-8.61 c 4.85,-2.58 9.79,-5.48 14.56,-8.27 4.54,-2.67 9.19,-5.15 13.83,-7.63 l 4.09,7.68 -4.23,2.78 c -15.92,10.55 -12.7,16.11 -6.57,27.63 l 43.52,81.68 c 6.12,11.53 8.95,17.3 26.59,9.97 l 4.66,-1.96 4.09,7.68 c -4.64,2.48 -9.3,4.95 -14.06,7.24 -4.96,2.38 -10.11,4.86 -14.97,7.45 l -16.17,8.61 c -4.84,2.59 -9.8,5.48 -14.54,8.28 -4.54,2.67 -9.21,5.15 -13.85,7.63 l -4.09,-7.69" /><path
         id="path92"
         style="fill:#2e3192;fill-opacity:1;fill-rule:nonzero;stroke:none"
         d="m 1906.44,1984.81 c -7.74,-10.52 -11.36,-15.81 -27.75,-6.01 l -4.33,2.6 -5.16,-6.99 c 4.24,-3.14 8.49,-6.25 12.85,-9.19 4.57,-3.08 9.31,-6.29 13.75,-9.54 l 14.76,-10.86 c 4.42,-3.27 8.89,-6.84 13.18,-10.28 4.11,-3.31 8.36,-6.43 12.6,-9.56 l 5.15,7.01 -3.78,3.36 c -14.21,12.75 -10.25,17.78 -2.51,28.29 l 60.56,82.25 c 3.8,5.16 4.6,7.42 11.07,2.66 21.19,-15.6 23.63,-30.47 16.51,-45.14 l -2.25,-4.6 7.57,-5.57 c 6.86,10.87 11.69,17.83 24.45,36.32 l -41.91,29.99 -35.78,26.33 -41.08,31.09 c -13.86,-17.66 -19.07,-24.34 -27.41,-34.13 l 7.56,-5.57 3.71,3.51 c 11.92,11.15 26.83,13.25 48.03,-2.35 6.46,-4.76 4.56,-6.2 0.75,-11.36 l -60.54,-82.26" /><path
         id="path94"
         style="fill:#2e3192;fill-opacity:1;fill-rule:nonzero;stroke:none"
         d="m 2087.87,1955.31 -66.76,-64.01 c -9.42,-9.02 -13.88,-13.63 -28.36,-1.18 l -3.8,3.32 -6.29,-6.02 c 22.18,-22.81 14.75,-14.4 22.99,-22.99 l 71.44,-75.5 9.93,10.15 c 7.62,7.94 16.67,15.36 22.93,20.08 l -6.18,6.45 c -24.39,-19.57 -44.27,-2.8 -52.67,5.96 -13.62,14.22 -16.33,23.34 4.15,42.98 l 21.81,20.92 3.97,-4.13 c 9.98,-10.41 11.93,-25.02 -0.46,-36.58 l 6.19,-6.45 21.83,21.89 22.78,20.89 -6.18,6.45 c -12.06,-11.9 -26.58,-9.33 -36.56,1.09 l -3.96,4.13 33.2,31.85 c 8.11,7.76 8.45,8.4 15.72,0.8 l 3.5,-3.64 c 10.77,-11.23 27.54,-30.04 9.26,-52 l 6.81,-7.11 c 7.96,8.9 13.43,14.45 27.99,29.37 l -65.77,67.61 c -7.76,8.09 -0.3,0.97 -22.01,23.93 l -6.28,-6.02 3.15,-3.95 c 11.84,-14.99 7.05,-19.25 -2.37,-28.29" /><path
         id="path96"
         style="fill:#2e3192;fill-opacity:1;fill-rule:nonzero;stroke:none"
         d="m 2189.12,1751.67 c -51.52,7.36 -71.07,3.62 -86.05,20.61 l -7.22,-4.84 13.69,-19.22 c 5.29,-7.47 15.57,-24.03 19.58,-30.43 l 7.23,4.85 -1.66,3.29 c -3.44,6.78 -5.56,12 0.15,15.82 1.9,1.27 8.87,5.67 46.17,-0.21 l 4.32,-0.68 -11.71,-36.8 c -1.39,-4.52 -3.28,-10.75 -6.71,-13.04 -6.09,-4.08 -9.98,2.96 -14.24,8.09 l -2.81,3.37 -7.21,-4.85 c 3.87,-5.39 9.99,-13.69 13.81,-19.41 2.42,-3.61 4.72,-7.03 7.15,-10.64 2.93,-4.38 5.73,-8.57 8.67,-12.94 4.6,-6.85 11.34,-17.75 15.49,-24.35 l 7.23,4.85 c -7.01,12.11 -2.47,20.95 0.81,30.87 l 23.89,70.87 c 44.22,-5.1 67.19,0.1 83.44,-18.78 l 7.23,4.84 -18.42,26.25 c -4.65,6.53 -11.02,16.86 -14.61,23.02 l -7.21,-4.85 2.03,-3.87 c 1.66,-3.3 7.21,-11.16 0.16,-15.87 -4.56,-3.06 -13.51,-4.1 -40.56,-1.57 l -8.26,0.81 9.75,28.6 c 4.69,13.6 8.35,17.17 10.82,18.83 5.71,3.82 9.54,-3.53 12.98,-7.84 l 2.11,-2.73 7.23,4.85 c -4.4,6.15 -11.93,16.54 -16.52,23.39 -2.8,4.18 -5.73,8.56 -8.54,12.75 -2.41,3.61 -4.71,7.03 -7.13,10.65 -3.83,5.71 -9.19,14.52 -12.7,20.16 l -7.23,-4.84 c 5.62,-14.15 2.27,-20.25 -2.13,-32.59 l -23.02,-66.42" /><path
         id="path98"
         style="fill:#2e3192;fill-opacity:1;fill-rule:nonzero;stroke:none"
         d="m 2206.86,1614.45 -2.35,4.48 -8.05,-3.32 c 2.02,-4.87 4.03,-9.74 6.25,-14.52 2.33,-5 4.71,-10.2 6.81,-15.27 l 7,-16.94 c 2.09,-5.08 4.08,-10.47 5.96,-15.62 1.81,-4.96 3.82,-9.84 5.83,-14.7 l 8.04,3.32 -1.51,4.83 c -5.55,18.27 0.45,20.5 12.52,25.49 l 38.74,16.01 26.23,-63.5 -38.72,-16.01 c -12.07,-4.98 -17.9,-7.65 -26.87,9.23 l -2.34,4.48 -8.05,-3.33 c 2.02,-4.87 4.03,-9.74 6.26,-14.52 2.31,-4.99 4.7,-10.19 6.79,-15.27 l 7.01,-16.94 c 2.1,-5.07 4.08,-10.45 5.96,-15.62 1.79,-4.96 3.82,-9.82 5.82,-14.7 l 8.05,3.33 -1.51,4.83 c -5.56,18.27 0.46,20.51 12.52,25.49 l 85.51,35.34 c 12.06,4.99 17.92,7.65 26.87,-9.22 l 2.34,-4.48 8.04,3.32 c -2,4.88 -4.01,9.74 -6.24,14.52 -2.31,4.99 -4.72,10.2 -6.82,15.27 l -6.99,16.94 c -2.1,5.08 -4.08,10.46 -5.97,15.63 -1.79,4.96 -3.8,9.82 -5.82,14.69 l -8.04,-3.32 1.51,-4.84 c 5.56,-18.26 -0.46,-20.5 -12.52,-25.49 l -36.2,-14.96 -26.24,63.51 36.2,14.96 c 12.06,4.98 17.91,7.64 26.86,-9.23 l 2.35,-4.48 8.04,3.32 c -2.02,4.87 -4.03,9.74 -6.24,14.52 -2.32,5 -4.73,10.2 -6.82,15.28 l -7,16.93 c -2.1,5.09 -4.07,10.46 -5.97,15.63 -1.79,4.95 -3.8,9.83 -5.82,14.69 l -8.05,-3.32 1.52,-4.84 c 5.56,-18.26 -0.46,-20.5 -12.52,-25.49 l -85.51,-35.33 c -12.07,-4.99 -17.9,-7.65 -26.86,9.22" /><path
         id="path100"
         style="fill:#2e3192;fill-opacity:1;fill-rule:nonzero;stroke:none"
         d="m 2315.56,1362.72 90.18,20.66 c 12.73,2.92 18.93,4.58 24.95,-13.55 l 1.58,-4.8 8.47,1.94 c -1.17,5.14 -2.34,10.27 -3.76,15.36 -1.44,5.3 -2.96,10.83 -4.18,16.19 l -4.08,17.86 c -1.24,5.35 -2.28,10.98 -3.3,16.39 -0.95,5.18 -2.12,10.32 -3.29,15.45 l -8.5,-1.93 0.7,-5.02 c 2.45,-18.94 -3.85,-20.14 -16.59,-23.06 l -90.17,-20.67 c -12.72,-2.92 -18.93,-4.58 -24.96,13.54 l -1.57,4.8 -8.48,-1.93 c 1.18,-5.14 2.35,-10.28 3.75,-15.36 1.45,-5.3 2.96,-10.83 4.2,-16.19 l 4.08,-17.85 c 1.24,-5.36 2.29,-10.99 3.3,-16.4 0.94,-5.19 2.12,-10.32 3.29,-15.45 l 8.5,1.93 -0.7,5.02 c -2.45,18.93 3.85,20.15 16.58,23.07" /><path
         id="path102"
         style="fill:#2e3192;fill-opacity:1;fill-rule:nonzero;stroke:none"
         d="m 2423.25,1211.29 c -18.52,5.82 -32.56,9.64 -33.93,29.06 l -0.78,10.95 37.01,2.61 c 13,0.92 19.39,1.6 22.55,-17.23 l 0.82,-4.99 8.67,0.62 c -0.37,5.24 -0.73,10.5 -1.33,15.73 -0.63,5.47 -1.26,11.16 -1.64,16.64 l -1.28,18.27 c -0.4,5.48 -0.58,11.22 -0.72,16.71 -0.15,5.26 -0.53,10.52 -0.89,15.78 l -8.67,-0.61 -0.11,-5.06 c -0.49,-19.09 -6.9,-19.31 -19.91,-20.22 l -92.27,-6.51 c -13.03,-0.92 -19.4,-1.59 -22.57,17.23 l -0.81,4.99 -8.67,-0.61 c 0.37,-5.25 0.74,-10.5 1.34,-15.74 0.6,-5.47 1.23,-11.16 1.62,-16.64 l 1.29,-18.27 c 0.38,-5.48 0.56,-11.21 0.72,-16.7 0.14,-5.27 0.51,-10.52 0.89,-15.78 l 8.66,0.61 0.12,5.06 c 0.49,19.09 6.89,19.31 19.91,20.22 l 43.86,3.09 0.58,-8.21 c 0.67,-9.6 -1.53,-17.33 -18.86,-25.66 l -21.74,-10.49 c -14,-6.72 -32.88,-15.63 -30.83,-44.63 0.52,-7.54 3.53,-24.08 24.15,-30.21 l 3.29,8.95 c -4.04,2.02 -7.18,4.09 -7.49,8.44 -0.55,7.76 9.81,14 14.41,16.84 32.06,20.63 43,34.71 45.48,51.64 l 0.7,0.05 c 3.14,-5.52 8.59,-11.33 29.52,-18.35 8.46,-2.84 21.53,-6.06 22.14,-14.5 0.22,-3.2 -2.1,-6.12 -3.69,-9.68 -0.78,-2.12 -1.73,-4.7 -1.48,-8.13 0.52,-7.54 5.65,-15.21 15.47,-14.52 8.92,0.63 16.52,6.68 15.52,20.83 -1.79,25.35 -24.12,32.96 -41.05,38.42" /><path
         id="path104"
         style="fill:#2e3192;fill-opacity:1;fill-rule:nonzero;stroke:none"
         d="m 2362.6,1065.83 51.5,-27.86 -56.24,-14.7 z m -43.91,54.43 -8.65,0.97 c -0.13,-5.29 -0.71,-14.67 -1.93,-23.52 l -4.26,-32.01 8.65,-0.96 1.51,5.35 c 2.24,7.59 4.03,13.38 14.27,12.24 6.6,-0.74 12.16,-4.58 18.68,-8.08 l 5.22,-2.88 -5.7,-50.97 -7.16,-2.2 c -13.6,-4.24 -18.9,-4.34 -22.77,-3.91 -7.98,0.89 -7.29,9.11 -7.41,14.19 l -0.02,5.99 -8.65,0.97 c -0.48,-6.4 -1.19,-16.92 -1.96,-23.74 -0.46,-4.33 -0.93,-8.42 -1.42,-12.739 -0.54,-4.781 -1.08,-9.789 -1.63,-14.57 -0.83,-7.512 -2.62,-19.532 -3.67,-26.782 l 8.65,-0.961 c 2.61,17.223 13.48,19.692 26.08,23.122 l 128.62,35.66 1.24,11.14 -108.71,60.28 c -15.62,8.65 -27.63,14.59 -28.98,33.41" /><path
         id="path106"
         style="fill:#2e3192;fill-opacity:1;fill-rule:nonzero;stroke:none"
         d="m 598.02,429.75 c -2.383,2.301 -5.793,5.18 -11.528,10.93 -6.133,6.152 -8.394,8.968 -11.304,11.902 -0.469,0.25 -2.59,-1.531 -2.766,-2.332 1.367,-1.691 3.047,-3.82 3.848,-5.18 1.613,-2.601 0.847,-4 -1.75,-6.699 -2.391,-2.84 -7.118,-7.531 -16.395,-16.781 -9.68,-9.641 -18.469,-17.969 -20.801,-19.961 -2.082,-1.731 -3.586,-2.168 -5.761,-0.969 -1.915,1.192 -3.184,2.219 -6.043,4.449 -0.61,0.063 -2.512,-1.828 -2.61,-2.578 2.324,-2.34 7.422,-6.91 12.559,-12.082 5.246,-5.258 16.594,-17.519 22.656,-23.597 2.93,-2.93 4.27,-3.332 5.242,-3 4.524,1.019 15.996,7.519 19.094,9.839 0.344,0.75 -0.906,3.301 -1.555,3.629 -4.922,-1.89 -11.218,-3.718 -15.015,-4.25 -3.848,-0.699 -5.911,0.282 -7.637,2.02 -3.742,3.531 -10.324,10.16 -11.789,12.808 -0.227,0.762 -0.43,2.602 0.918,4.051 2.762,3.082 11.133,11.61 20.578,21.02 8.25,7.98 14.539,14.25 16.922,16.312 2.148,2.051 3.176,2.77 5.652,1.461 1.195,-0.871 2.445,-1.562 4.875,-3.594 0.762,0.114 2.676,2.012 2.61,2.602" /><path
         id="path108"
         style="fill:#2e3192;fill-opacity:1;fill-rule:nonzero;stroke:none"
         d="m 667.422,366.48 c -2.039,1.782 -5.957,4.622 -12.527,10.239 -5.364,4.59 -9.661,8.761 -12.153,10.902 -0.601,-0.031 -2.476,-1.973 -2.527,-2.73 2.219,-2.27 3.332,-3.539 4.453,-5.301 1.289,-2.02 0.613,-3.641 -1.016,-5.801 -3.261,-4.359 -7.629,-9.488 -14.707,-17.75 -8.152,-9.559 -16.511,-19.34 -19.179,-21.988 -2.578,-2.531 -3.953,-3.192 -6.895,-1.571 -1.238,0.668 -2.859,1.629 -4.891,2.969 -0.683,0.071 -2.519,-2.078 -2.406,-2.777 3.149,-2.692 7.063,-5.543 13.481,-11.012 5.281,-4.539 9.429,-8.39 12.207,-10.949 0.523,0.059 2.617,2.008 2.676,2.551 -1.692,2.047 -3.469,4.078 -4.348,5.429 -2.117,2.809 -0.852,4.758 0.93,7.071 2.566,3.347 9.121,11.047 17.5,20.84 6.55,7.679 12.539,14.679 15.535,17.847 2.422,2.442 3.691,3.571 6.269,2.481 1.367,-0.66 3.184,-1.821 5.215,-3.25 0.789,0.242 2.371,2.211 2.383,2.8" /><path
         id="path110"
         style="fill:#2e3192;fill-opacity:1;fill-rule:nonzero;stroke:none"
         d="m 740.012,311.129 -34.66,24.851 c -2.989,2.141 -5.625,4.77 -7.254,7.262 -0.215,0.438 -1.118,0.52 -1.243,0.34 -3.378,-4.09 -9.902,-11.191 -13.449,-14.691 -0.261,-0.75 2.168,-3.149 2.688,-3.231 3.574,2.621 7.058,4.738 9.765,5.988 2.715,1.454 4.629,1.211 6.438,-0.078 3.047,-1.922 9.266,-6.359 10.879,-7.8 0.191,-0.149 0.078,-0.809 -0.102,-1.071 -11.062,-15.418 -24.754,-34.539 -31.101,-42.898 -3.262,-4.16 -4.953,-5.309 -8.282,-3.762 -1.574,0.551 -4.16,1.922 -7.011,3.59 -0.762,0 -2.285,-2.117 -2.16,-2.969 2.824,-2.012 7.902,-5.18 15.734,-10.801 6.113,-4.371 11.355,-8.609 14.519,-10.879 0.813,-0.101 2.629,2.079 2.524,2.719 -2.922,2.852 -4.492,4.071 -5.695,5.692 -1.68,2.129 -1.133,4.101 0.605,6.918 3.586,5.523 21.746,30.851 31.641,44.683 0.273,0.367 0.644,0.477 0.965,0.438 1.917,-1.289 8.339,-5.711 11.917,-8.52 1.637,-1.48 2.215,-2.93 1.661,-5.551 -0.762,-2.648 -2.336,-6.148 -4.496,-9.679 0.097,-0.539 2.835,-2.489 3.351,-2.309 4.629,5.258 10.457,11.828 13.977,14.758 0.132,0.203 -0.012,1.051 -0.266,1.23 -3.359,0.821 -6.269,2.422 -10.945,5.77" /><path
         id="path112"
         style="fill:#2e3192;fill-opacity:1;fill-rule:nonzero;stroke:none"
         d="m 838.684,253 c -3.45,0.469 -6.504,1.789 -11.489,4.648 l -37.027,21.293 c -3.203,1.821 -6.098,4.2 -7.941,6.5 -0.293,0.43 -1.18,0.418 -1.297,0.219 -2.961,-4.39 -8.723,-12.14 -11.926,-15.969 -0.176,-0.781 2.488,-2.929 2.988,-2.961 3.301,2.969 6.571,5.43 9.129,6.961 2.57,1.707 4.504,1.68 6.43,0.547 3.242,-1.597 9.883,-5.418 11.637,-6.679 0.199,-0.118 0.167,-0.797 0.011,-1.071 C 789.727,250 777.98,229.59 772.48,220.641 c -2.824,-4.481 -4.382,-5.801 -7.851,-4.602 -1.621,0.41 -4.336,1.512 -7.356,2.902 -0.757,-0.089 -2.058,-2.359 -1.835,-3.191 2.992,-1.719 8.371,-4.379 16.757,-9.168 6.489,-3.75 12.168,-7.453 15.559,-9.41 0.781,0 2.402,2.34 2.234,2.969 -3.218,2.57 -4.91,3.621 -6.277,5.097 -1.863,1.961 -1.516,3.973 -0.066,6.942 3.015,5.879 18.574,32.949 27.07,47.711 0.203,0.39 0.574,0.539 0.918,0.531 2.012,-1.09 8.887,-4.852 12.703,-7.301 1.797,-1.332 2.5,-2.699 2.219,-5.359 -0.5,-2.723 -1.711,-6.352 -3.496,-10.102 0.132,-0.531 3.054,-2.199 3.562,-1.961 4.07,5.711 9.207,12.832 12.422,16.11 0.117,0.203 -0.09,1.031 -0.359,1.191" /><path
         id="path114"
         style="fill:#2e3192;fill-opacity:1;fill-rule:nonzero;stroke:none"
         d="m 906.133,218.93 -21.262,9.582 c -5.683,2.558 -11.543,5.707 -14.961,7.258 -0.68,-0.211 -1.961,-2.481 -1.617,-3.231 2.168,-1.379 3.809,-2.367 5.145,-3.48 2.031,-1.84 2.128,-2.887 0.871,-6.45 -1.094,-3 -5.11,-11.859 -9.141,-20.789 -5.559,-12.34 -9.926,-22.05 -11.887,-25.871 -1.75,-3.48 -3.34,-4.379 -5.82,-3.929 -1.953,0.3 -4.91,1.222 -8.66,2.402 -0.449,-0.293 -1.418,-2.633 -1.504,-3.352 5.23,-2.351 11.824,-4.898 18.367,-7.859 11.231,-5.063 19.895,-9.469 28.887,-13.531 5.027,-2.258 5.871,-1.891 6.867,-0.989 3.25,2.559 9.645,10.25 11.551,13 -0.164,0.75 -2.207,2.668 -2.864,2.879 -3.085,-2.879 -7.078,-5.781 -9.929,-7.269 -3.321,-1.602 -4.922,-1.629 -9.738,0.359 -5.301,2.391 -12.45,5.879 -14.375,7.391 -1.09,0.929 -1.493,2.879 -0.602,4.82 2.227,5.289 6.426,14.809 8.973,20.289 0.109,0.219 0.8,0.82 1.074,0.692 3.691,-1.661 12.137,-5.461 14.695,-6.872 2.141,-1.39 2.414,-3.031 2.277,-4.8 -0.292,-1.461 -0.429,-1.731 -1.062,-4.809 0.359,-0.66 3.23,-1.781 3.965,-1.621 1.101,2.852 2.832,6.871 4.375,10.262 1.629,3.636 3.972,7.707 5.254,9.968 -0.199,0.7 -3.032,2.059 -3.813,1.989 -0.926,-1.348 -1.98,-2.707 -2.73,-3.637 -1.699,-1.91 -3.031,-2.66 -5.449,-1.66 -3.711,1.25 -11.594,4.808 -15.098,6.547 -0.254,0.133 -0.434,0.722 -0.234,1.121 2.593,5.961 6.832,15.39 9.792,21.769 0.247,0.493 1.387,1.571 2.247,1.422 1.394,-0.461 13.261,-5.812 15.593,-7.109 2.485,-1.363 3.442,-2.813 3.254,-5.66 0,-2.02 -0.469,-4.16 -1.64,-7.91 0.293,-0.473 3.117,-1.653 3.859,-1.481 2.559,5.129 6.309,11.75 8.594,14.578 0.105,0.211 0.027,0.66 -0.176,0.75 -3.188,0.93 -8.898,3.352 -13.078,5.231" /><path
         id="path116"
         style="fill:#2e3192;fill-opacity:1;fill-rule:nonzero;stroke:none"
         d="m 981.086,153.762 c -2.387,-0.321 -7.492,1.097 -13.652,3.418 -0.286,0.101 -0.43,0.461 -0.266,0.902 3.867,11.387 7.937,23.449 9.238,26.5 0.196,0.559 0.907,1.289 1.289,1.406 1.106,-0.047 2.676,-0.429 3.614,-0.738 10.371,-3.52 13.496,-11.52 10.156,-21.41 -2.449,-7.168 -6.524,-9.68 -10.379,-10.078 z m 24.324,8.988 c 3.3,9.73 -1.42,19.68 -14.851,24.219 -5.293,1.832 -11.371,3.48 -19.707,6.32 -3.789,1.27 -11.36,4.25 -14.036,5.16 -0.671,-0.058 -1.621,-2.629 -1.562,-3.39 2.18,-0.989 4.18,-2 5.652,-2.899 2.278,-1.418 2.688,-3.078 1.66,-6.301 -1.199,-4.039 -4.296,-13.199 -8.054,-24.308 -2.239,-6.602 -7.5,-21.571 -8.582,-24.602 -1.504,-3.699 -2.805,-4.879 -5.539,-4.609 -1.543,0.211 -3.457,0.551 -5.684,0.961 -0.715,-0.25 -1.453,-2.903 -1.172,-3.481 2.188,-0.75 7.168,-2.031 15.371,-4.8 8.059,-2.75 13.313,-4.938 15.625,-5.711 0.703,0.16 1.77,3.043 1.414,3.41 -2.625,1.383 -3.992,2.082 -5.8,3.172 -2.215,1.41 -2.586,2.91 -1.5,6.328 1.226,4.363 4.207,13.152 6.394,19.613 0.059,0.148 0.43,0.52 0.637,0.43 0.957,-0.332 4.265,-1.282 5.437,-1.84 1.211,-0.492 1.934,-1.461 2.45,-2.863 1.789,-7.321 4.472,-19.719 6.945,-26.289 0.691,-2.27 2.137,-4.688 3.855,-6.5 3.672,-3.508 13.586,-7.258 19.417,-8.848 0.59,0.047 2.03,2.867 1.87,3.34 -5.962,2.898 -6.9,3.707 -9.759,9.379 -3.618,7.281 -8.469,23.988 -9.692,30.39 -0.125,0.117 0.219,0.66 0.324,0.699 8.067,0.661 15.827,4.02 18.887,13.02" /><path
         id="path118"
         style="fill:#2e3192;fill-opacity:1;fill-rule:nonzero;stroke:none"
         d="m 1054.75,167.52 c -0.55,-0.231 -1.34,-2.79 -1.02,-3.5 2.98,-1.051 4.56,-1.668 6.34,-2.731 2.06,-1.207 2.2,-2.969 1.7,-5.617 -0.92,-5.371 -2.54,-11.902 -5.12,-22.461 -2.99,-12.191 -6.03,-24.68 -7.23,-28.242 -1.16,-3.418 -2.07,-4.617 -5.42,-4.508 -1.42,0.027 -3.29,0.18 -5.73,0.449 -0.62,-0.23 -1.3,-2.9686 -0.89,-3.5584 4.04,-0.9805 8.8,-1.7618 16.98,-3.7618 6.76,-1.6484 12.18,-3.2187 15.81,-4.2695 0.46,0.2891 1.42,2.961 1.25,3.4805 -2.43,1.0586 -4.94,2.0898 -6.3,2.8906 -3.17,1.5586 -2.91,3.8594 -2.39,6.7186 0.8,4.129 3.19,13.942 6.25,26.41 2.4,9.821 4.57,18.731 5.83,22.91 1.07,3.321 1.68,4.911 4.49,5.079 1.5,0.043 3.65,-0.18 6.09,-0.539 0.61,0.55 1.15,3.019 0.87,3.562 -2.6,0.617 -7.39,1.387 -15.77,3.449 -6.86,1.68 -12.55,3.449 -15.74,4.239" /><path
         id="path120"
         style="fill:#2e3192;fill-opacity:1;fill-rule:nonzero;stroke:none"
         d="m 1122.23,132.859 c -1.74,-11.277 5.05,-18.07 14.3,-25.699 9.68,-8.0116 12.52,-12.1678 11.5,-18.6717 -1.15,-7.5 -7.12,-9.9766 -12.78,-9.0977 -3.94,0.6289 -7.89,2.1602 -10.57,4.8203 -3.69,3.5977 -5.56,8.5977 -6.71,16.6211 -0.48,0.379 -3.56,0.066 -3.98,-0.641 -0.4,-4.0426 -0.18,-16.609 0.71,-18.3824 2.48,-2.0195 9.26,-5.2969 16.67,-6.4492 17.24,-2.6875 28.33,5.8203 30.14,17.5508 1.32,8.5508 -2.28,14.2108 -8.92,19.8908 -3.97,3.328 -8.07,6.371 -12.37,10.211 -4.31,4.008 -6.63,7.687 -5.66,13.34 0.89,5.687 5.69,10.289 12.74,9.179 3.63,-0.551 6.54,-1.711 8.74,-3.91 2.52,-2.242 3.21,-5.832 3.02,-13.012 0.4,-0.367 3.22,-0.808 3.67,-0.328 1.45,6.348 3.15,12.278 4.55,16.328 -5.2,1.34 -9.75,3.442 -18.17,4.75 -12.92,2.012 -24.84,-3.488 -26.88,-16.5" /><path
         id="path122"
         style="fill:#2e3192;fill-opacity:1;fill-rule:nonzero;stroke:none"
         d="m 1316.63,70.4492 c -2.42,-2.789 -3.9,-3.4492 -9.12,-3.5 -5.8,0.1016 -13.78,0.4922 -16.11,1.1524 -1.38,0.3984 -2.5,2.0273 -2.47,4.1679 -0.03,5.75 0.07,16.1602 0.26,22.2227 0,0.2187 0.41,1.0469 0.71,1.0469 4.06,-0.0782 13.32,-0.25 16.25,-0.5391 2.5,-0.4102 3.4,-1.8203 3.99,-3.5117 0.28,-1.457 0.27,-1.7891 0.9,-4.8399 0.61,-0.4765 3.66,-0.3867 4.3,0.0508 -0.1,3.0703 -0.1,7.4492 -0.04,11.1992 0.08,3.9806 0.65,8.6406 0.9,11.2496 -0.44,0.532 -3.57,0.661 -4.28,0.313 -0.32,-1.609 -0.75,-3.281 -1.08,-4.422 -0.81,-2.449 -1.76,-3.648 -4.36,-3.68 -3.92,-0.308 -12.56,-0.148 -16.46,0.071 -0.3,0.011 -0.67,0.48 -0.67,0.941 0.05,6.5 0.24,16.828 0.44,23.891 0.01,0.527 0.66,1.98 1.49,2.199 1.47,0.121 14.48,-0.109 17.17,-0.41 2.84,-0.281 4.26,-1.231 5.19,-3.922 0.82,-1.848 1.23,-4.02 1.62,-7.918 0.47,-0.332 3.54,-0.301 4.14,0.148 0.34,5.743 1.18,13.301 2.17,16.813 0,0.219 -0.23,0.617 -0.46,0.617 -3.29,-0.41 -9.51,-0.43 -14.1,-0.348 l -23.35,0.45 c -6.22,0.097 -12.86,0.691 -16.61,0.757 -0.56,-0.449 -0.82,-3.039 -0.23,-3.597 2.53,-0.442 4.44,-0.68 6.1,-1.172 2.6,-0.91 3.12,-1.848 3.36,-5.598 0.16,-3.281 -0.03,-12.992 -0.22,-22.781 -0.24,-13.5391 -0.43,-24.1797 -0.76,-28.4609 -0.2,-3.8672 -1.31,-5.3203 -3.78,-5.8907 -1.93,-0.4882 -4.99,-0.8164 -8.89,-1.207 -0.32,-0.4531 -0.3,-2.9922 -0.08,-3.6719 5.75,-0.1093 12.79,0.1524 20,0.0118 12.31,-0.2305 22.05,-0.8829 31.92,-1.0625 5.53,-0.1094 6.15,0.5703 6.7,1.7812 1.98,3.6602 4.85,13.2617 5.51,16.5313 -0.44,0.6171 -3.11,1.5898 -3.8,1.5273 -1.67,-3.8867 -4.21,-8.1094 -6.25,-10.6094" /><path
         id="path124"
         style="fill:#2e3192;fill-opacity:1;fill-rule:nonzero;stroke:none"
         d="m 1425.62,140.441 c -3.1,-1.55 -6.36,-2.171 -12.09,-2.601 l -42.49,-3.192 c -3.7,-0.269 -7.38,0.071 -10.23,0.922 -0.48,0.211 -1.19,-0.332 -1.18,-0.539 0.01,-5.301 -0.42,-14.929 -0.9,-19.883 0.29,-0.738 3.69,-1.019 4.14,-0.769 1.06,4.312 2.37,8.16 3.63,10.871 1.18,2.852 2.78,3.898 4.98,4.051 3.57,0.508 11.23,1.078 13.36,1.008 0.25,0.031 0.59,-0.571 0.62,-0.868 1.42,-18.941 3.18,-42.3707 3.63,-52.859 0.18,-5.2812 -0.36,-7.25 -3.89,-8.2031 -1.58,-0.5703 -4.43,-1.1797 -7.7,-1.7187 -0.58,-0.5118 -0.38,-3.0899 0.27,-3.6797 3.42,0.2695 9.37,1.1015 18.99,1.8281 7.48,0.5508 14.22,0.6719 18.13,0.9609 0.63,0.4414 0.65,3.2813 0.17,3.6993 -4.08,0.3125 -6.09,0.2304 -8.04,0.7109 -2.64,0.5703 -3.48,2.4297 -3.96,5.6914 -0.8,6.5391 -3.13,37.5979 -4.4,54.5589 -0.04,0.449 0.17,0.781 0.46,0.961 2.3,0.238 10.07,0.98 14.59,1.089 2.23,-0.07 3.58,-0.808 4.83,-3.179 1.13,-2.52 2.17,-6.192 2.78,-10.313 0.41,-0.34 3.76,-0.09 4.04,0.403 0.17,7 0.43,15.757 1.25,20.281 -0.03,0.207 -0.69,0.789 -0.99,0.769" /><path
         id="path126"
         style="fill:#2e3192;fill-opacity:1;fill-rule:nonzero;stroke:none"
         d="m 1565.86,124.711 c -1.16,-0.402 -4.28,-1.152 -7.62,-1.973 -3.66,-0.867 -6.71,-1.597 -7.94,-1.75 -0.39,-0.039 -0.54,0.16 -0.56,0.703 0.63,6.149 1.59,18.43 2.31,25 0.13,0.09 0.52,0.11 0.6,0.141 3.33,-5.043 10.3,-16.273 13.46,-21.184 0.09,-0.367 -0.03,-0.878 -0.25,-0.937 z m 25.28,-13.031 c -6.36,8.769 -24.93,37.711 -30.13,45.511 -1.17,1.93 -2.43,4.161 -3.29,5.829 -1.01,-0.258 -2.4,-0.75 -4.64,-1.29 -2.07,-0.488 -3.83,-0.769 -4.9,-0.929 0.18,-1.77 -0.01,-5.289 -0.35,-7.813 -0.8,-8.386 -4.24,-38.218 -6.89,-53.988 -1.36,-8.7617 -2.7,-10.0312 -10.47,-13.1016 -0.33,-0.5468 0.39,-3.207 0.87,-3.5586 2.9,0.6993 6.97,2.0704 12.32,3.3711 6.66,1.5899 11.88,2.4688 14.62,3.1289 0.42,0.5821 -0.03,3.3907 -0.56,3.6602 -2.16,-0.2187 -3.97,-0.2617 -5.84,-0.3203 -3.33,-0.0078 -3.79,1.3711 -4.23,3.1523 -0.56,2.3086 0.5,11.316 1.31,17.738 0.1,0.578 0.48,1.301 0.92,1.41 1.4,0.418 3.27,0.86 9.3,2.321 4.09,0.988 8.09,2.097 9.81,2.379 0.39,0.09 1.02,-0.321 1.24,-0.5 2.99,-4.239 8.26,-12.348 10.42,-16.399 0.49,-0.742 0.78,-1.941 -0.53,-2.9724 -1.16,-0.8203 -3.38,-1.75 -5.51,-2.7383 -0.42,-0.5 0.36,-3.0703 0.89,-3.582 3.26,0.8008 8.53,2.4609 15.98,4.2617 6.84,1.6602 12.46,2.6289 15.36,3.309 0.35,0.562 -0.1,3.371 -0.56,3.652 -8.65,-0.75 -9.48,-0.231 -15.14,7.469" /><path
         id="path128"
         style="fill:#2e3192;fill-opacity:1;fill-rule:nonzero;stroke:none"
         d="m 1664.77,159.27 c -1.69,-1.719 -6.59,-3.75 -12.88,-5.688 -0.29,-0.102 -0.61,0.109 -0.76,0.539 -3.96,11.359 -8.16,23.379 -9.03,26.559 -0.21,0.582 -0.07,1.609 0.16,1.91 0.89,0.652 2.37,1.34 3.33,1.648 10.32,3.633 17.71,-0.789 21.15,-10.617 2.49,-7.18 0.81,-11.66 -1.97,-14.351 z m 33.26,-18.571 c -7.32,3.52 -21.42,13.699 -26.34,18.012 -0.18,0.019 -0.23,0.648 -0.19,0.738 5.98,5.481 10.03,12.91 6.91,21.891 -3.39,9.691 -13.22,14.629 -26.6,9.949 -5.31,-1.91 -11.12,-4.32 -19.45,-7.23 -3.75,-1.321 -11.55,-3.629 -14.22,-4.567 -0.49,-0.351 0.35,-2.98 0.85,-3.543 2.34,0.571 4.52,1.012 6.26,1.199 2.66,0.293 3.99,-0.789 5.17,-3.937 1.55,-3.941 4.72,-13.051 8.58,-24.121 2.3,-6.59 7.4,-21.621 8.38,-24.68 1.1,-3.851 0.79,-5.57 -1.54,-7.039 -1.33,-0.789 -3.05,-1.723 -5.05,-2.742 -0.42,-0.629 0.64,-3.188 1.21,-3.457 2.18,0.758 6.9,2.808 15.07,5.648 8.04,2.801 13.52,4.321 15.84,5.129 0.47,0.563 -0.5,3.481 -1.01,3.539 -2.89,-0.527 -4.42,-0.808 -6.52,-1.058 -2.58,-0.25 -3.82,0.699 -5.06,4.07 -1.74,4.199 -4.77,12.961 -7.01,19.398 -0.06,0.141 0.01,0.661 0.23,0.723 0.94,0.328 4.15,1.609 5.42,1.899 1.25,0.359 2.43,0.039 3.67,-0.739 5.93,-4.672 15.67,-12.801 21.67,-16.472 1.92,-1.36 4.54,-2.399 7.03,-2.75 5.05,-0.508 15.15,2.613 20.74,4.972 0.44,0.399 -0.16,3.508 -0.57,3.758 -6.51,-1.359 -7.73,-1.301 -13.47,1.41" /><path
         id="path130"
         style="fill:#2e3192;fill-opacity:1;fill-rule:nonzero;stroke:none"
         d="m 1776.14,169.5 c -2.71,-0.398 -4.13,1.051 -5.72,3.949 -3.04,5.86 -16.05,34.16 -23.17,49.602 -0.19,0.41 -0.11,0.789 0.1,1.058 2.07,1.039 9.1,4.43 13.29,6.121 2.11,0.719 3.67,0.489 5.65,-1.289 1.92,-1.972 4.18,-5.062 6.19,-8.691 0.52,-0.199 3.56,1.211 3.66,1.762 -2.29,6.629 -5.11,14.929 -5.92,19.449 -0.1,0.211 -0.92,0.508 -1.19,0.379 -2.37,-2.531 -5.21,-4.258 -10.42,-6.641 l -38.75,-17.84 c -3.33,-1.539 -6.92,-2.507 -9.87,-2.699 -0.52,0.02 -1.03,-0.719 -0.93,-0.93 1.86,-4.96 4.82,-14.121 6.11,-18.921 0.52,-0.61 3.81,0.3 4.14,0.711 -0.53,4.41 -0.62,8.48 -0.39,11.46 0.09,3.071 1.25,4.622 3.27,5.551 3.16,1.699 10.12,4.91 12.17,5.598 0.2,0.09 0.74,-0.348 0.85,-0.598 7.96,-17.261 17.77,-38.621 21.89,-48.281 2,-4.891 2.17,-6.918 -0.8,-9.051 -1.28,-1.09 -3.75,-2.66 -6.63,-4.301 -0.35,-0.679 0.72,-3.039 1.54,-3.347 3.13,1.449 8.4,4.281 17.17,8.32 6.81,3.149 13.08,5.617 16.64,7.238 0.45,0.641 -0.52,3.301 -1.12,3.532 -3.94,-1.153 -5.79,-1.891 -7.76,-2.141" /><path
         id="path132"
         style="fill:#2e3192;fill-opacity:1;fill-rule:nonzero;stroke:none"
         d="m 1858.04,212.461 c -3.36,-1.031 -4.78,0.809 -6.32,3.258 -2.29,3.562 -7.27,12.363 -13.6,23.562 -4.99,8.801 -9.51,16.801 -11.47,20.711 -1.51,3.039 -2.15,4.617 -0.23,6.668 1.07,1.039 2.8,2.379 4.81,3.781 0.05,0.829 -1.25,2.981 -1.83,3.2 -2.29,-1.25 -6.31,-3.95 -13.83,-8.219 -6.12,-3.473 -11.51,-6.09 -14.35,-7.711 -0.24,-0.629 0.94,-3.051 1.64,-3.352 2.9,1.282 4.46,1.911 6.5,2.36 2.34,0.543 3.63,-0.66 5.07,-2.918 3.03,-4.539 6.35,-10.403 11.72,-19.852 6.18,-10.918 12.52,-22.097 14.11,-25.519 1.51,-3.27 1.66,-4.77 -0.88,-6.989 -1.03,-0.941 -2.48,-2.121 -4.47,-3.589 -0.27,-0.602 1.13,-3.071 1.83,-3.211 3.6,2.058 7.6,4.757 14.91,8.918 6.06,3.421 11.1,6.043 14.42,7.75 0.16,0.5 -0.97,3.132 -1.45,3.382 -2.5,-0.89 -5.01,-1.871 -6.58,-2.23" /><path
         id="path134"
         style="fill:#2e3192;fill-opacity:1;fill-rule:nonzero;stroke:none"
         d="m 1926.91,254.781 c -1.7,-1.16 -5.46,-2.992 -8.23,-2.75 -1.36,0.098 -3.33,1.09 -4.17,2.18 -3.21,4.031 -10.18,14.57 -14.63,21.07 -0.2,0.321 -0.09,0.688 0.05,0.879 0.61,0.602 2.52,1.879 3.83,2.801 10.2,6.937 19.5,5.777 25.51,-3.02 6.03,-8.851 4.54,-16.461 -2.36,-21.16 z m -30.42,25.438 c -4.48,6.59 -11.3,16.761 -13.13,19.691 -0.26,0.551 -0.46,1.531 -0.13,1.852 0.64,0.707 1.68,1.609 2.63,2.25 8.93,6.09 16.33,4.738 21.74,-3.18 2.54,-3.73 3.4,-7.59 1.77,-11.301 -0.76,-1.351 -2.75,-3.34 -6.6,-5.98 -2.47,-1.68 -4.42,-2.91 -5.51,-3.469 -0.19,-0.121 -0.61,-0.051 -0.77,0.137 z m 18.73,10.902 c -0.23,-0.062 -0.48,0.309 -0.34,0.5 4.89,6.309 5.36,13.77 1.7,19.149 -7.71,11.32 -19.44,6.492 -27.23,1.179 -4.55,-3.051 -9.46,-6.847 -16.1,-11.379 -6.46,-4.41 -10.41,-6.629 -12.68,-8.191 -0.27,-0.5 1.32,-2.828 2.04,-3.09 1.71,1.063 4.19,2.293 5.99,2.793 1.96,0.656 3.35,0.238 5.35,-2.281 3.24,-4.199 7.27,-10.371 14.84,-21.512 7.21,-10.57 12.72,-18.668 14.47,-21.66 1.86,-3.379 1.91,-4.82 0.42,-6.469 -1.26,-1.691 -3.41,-3.551 -5.57,-5.39 -0.18,-0.571 1.41,-2.911 2.05,-3.032 6.44,4.563 20.4,13.332 24.76,16.301 5.47,3.711 10.93,8.473 13.95,13.41 5.35,8.461 6.03,16.891 0.72,24.68 -5.84,8.531 -15.1,8.801 -24.37,4.992" /><path
         id="path136"
         style="fill:#2e3192;fill-opacity:1;fill-rule:nonzero;stroke:none"
         d="m 1995.59,375.172 c -1.87,6.308 -2.55,8.93 -0.79,12.199 0.62,1.289 1.92,2.867 3.4,4.508 -0.07,0.832 -1.89,2.902 -2.32,2.832 -2.21,-1.813 -4.53,-4.262 -9.84,-8.66 -5.98,-4.992 -9.76,-7.52 -11.24,-8.742 -0.14,-0.528 1.37,-2.86 2.05,-3.18 2.51,1.66 4.5,2.73 6.09,3.582 3.06,1.449 4.85,0.141 6.3,-3.75 3.69,-8.762 13.11,-37.449 15.08,-44.371 -0.02,-0.328 -0.29,-0.36 -0.47,-0.5 -5.51,2.91 -36,19.93 -43.87,24.64 -1.5,0.95 -2.11,2.032 -1.28,3.309 0.66,1.152 1.86,2.93 3.73,5.102 0.07,0.64 -1.84,2.941 -2.45,2.73 -1.6,-1.332 -6.76,-6.129 -12.42,-10.82 -4.36,-3.61 -9.95,-7.77 -12.55,-9.922 -0.25,-0.41 1.33,-2.789 2.12,-3.027 1.9,1.187 3.24,1.98 4.75,2.546 3.52,1.641 5.94,0.872 13.25,-3 8.02,-4.289 23.73,-13.117 38.6,-21.558 5.73,-3.18 10.47,-6.129 14.51,-8.828 1.51,1.547 4.85,4.328 6.64,5.519 -1.47,3.348 -3.5,8.91 -6,16.59 -4.81,15.121 -10.79,33.918 -13.29,42.801" /><path
         id="path138"
         style="fill:#2e3192;fill-opacity:1;fill-rule:nonzero;stroke:none"
         d="m 2066.64,416.809 c -5.03,-1.239 -9.9,-2.758 -15.53,-3.957 -5.8,-1.141 -10.1,-0.821 -14.12,3.296 -4.07,4.071 -4.93,10.661 0.1,15.704 2.6,2.589 5.25,4.277 8.35,4.769 3.29,0.699 6.58,-0.871 12.27,-5.262 0.54,0.11 2.54,2.121 2.42,2.77 -4.26,4.93 -8.05,9.781 -10.48,13.301 -4.18,-3.41 -8.56,-5.828 -14.56,-11.84 -9.25,-9.27 -11.85,-22.141 -2.53,-31.449 8.07,-8.059 17.54,-6.602 29.18,-3.621 12.16,3.089 17.2,2.929 21.85,-1.719 5.37,-5.36 3.85,-11.641 -0.2,-15.699 -2.83,-2.813 -6.4,-5.082 -10.14,-5.672 -5.08,-0.871 -10.22,0.582 -17.35,4.371 -0.62,-0.172 -2.19,-2.813 -1.84,-3.571 3.03,-2.718 13.31,-9.949 15.25,-10.281 3.09,0.821 9.75,4.332 15.05,9.641 12.34,12.34 12,26.301 3.59,34.68 -6.11,6.109 -12.82,6.55 -21.31,4.539" /><path
         id="path140"
         style="fill:#2e3192;fill-opacity:1;fill-rule:nonzero;stroke:none"
         d="m 807.219,1769.82 c 5.281,4.83 5.679,13.05 0.847,18.34 -4.836,5.29 -13.066,5.67 -18.359,0.84 -5.273,-4.83 -5.644,-13.06 -0.812,-18.35 4.796,-5.29 13.046,-5.67 18.324,-0.83" /><path
         id="path142"
         style="fill:#2e3192;fill-opacity:1;fill-rule:nonzero;stroke:none"
         d="m 1840.11,1769.93 c 5.2,4.92 5.5,13.15 0.55,18.38 -4.91,5.24 -13.14,5.49 -18.37,0.57 -5.23,-4.9 -5.5,-13.15 -0.56,-18.38 4.91,-5.23 13.12,-5.48 18.38,-0.57" /><path
         id="path144"
         style="fill:#2e3192;fill-opacity:1;fill-rule:nonzero;stroke:none"
         d="m 445.52,1139.38 h 24.214 V 994.09 H 445.52 Z m -6.848,-149.489 c 0.332,-1.711 0.652,-3.411 0.984,-5.121 h 39.399 v 163.94 h -55.129 c 0,-2.15 0.304,-14.92 0.398,-19.15 l 11.867,9.82 v -136.36 c 0.75,-4.399 1.68,-8.75 2.481,-13.129" /><path
         id="path146"
         style="fill:#2e3192;fill-opacity:1;fill-rule:nonzero;stroke:none"
         d="m 495.813,1176.02 h -71.27 c -0.195,-6.5 -0.449,-12.99 -0.5,-19.53 h 71.77 v 19.53" /><path
         id="path148"
         style="fill:#2e3192;fill-opacity:1;fill-rule:nonzero;stroke:none"
         d="m 580.645,1124.65 16.281,14.73 V 994.09 h -16.281 z m 25.593,14.73 H 630.48 V 994.09 h -24.242 z m 33.559,-154.61 v 163.94 H 561.816 V 984.77 h 77.981" /><path
         id="path150"
         style="fill:#2e3192;fill-opacity:1;fill-rule:nonzero;stroke:none"
         d="M 656.543,1176.02 H 548.34 v -19.53 h 108.203 v 19.53" /><path
         id="path152"
         style="fill:#2e3192;fill-opacity:1;fill-rule:nonzero;stroke:none"
         d="m 462.02,893.262 h 29.308 v 6.898 l 25.383,-0.101 -71.535,57.761 c 1.64,-7.39 3.32,-14.789 5.137,-22.109 l 26.64,-21.52 -20.89,0.079 5.957,-21.008" /><path
         id="path154"
         style="fill:#2e3192;fill-opacity:1;fill-rule:nonzero;stroke:none"
         d="m 1988.75,1124.65 13.3,14.73 H 2005 V 994.09 h -16.25 z m 25.57,14.73 h 24.22 V 994.09 h -24.22 z m 33.55,-154.61 v 163.94 h -77.94 V 984.77 h 77.94" /><path
         id="path156"
         style="fill:#2e3192;fill-opacity:1;fill-rule:nonzero;stroke:none"
         d="m 2064.64,1176.02 h -108.21 v -19.53 h 108.21 v 19.53" /><path
         id="path158"
         style="fill:#2e3192;fill-opacity:1;fill-rule:nonzero;stroke:none"
         d="m 2165.74,994.09 h -16.31 v 130.56 l 13.34,14.73 h 2.97 z m 26.06,0 h -16.74 v 145.29 h 24.24 v -95.94 c 4.18,34.52 6.4,69.64 6.47,105.27 h -75.14 V 984.77 h 59.41 c 0.59,3.101 1.18,6.199 1.76,9.32" /><path
         id="path160"
         style="fill:#2e3192;fill-opacity:1;fill-rule:nonzero;stroke:none"
         d="m 2205.64,1156.49 c -0.04,6.54 -0.3,13.03 -0.49,19.53 h -87.97 v -19.53 h 88.46" /><path
         id="path162"
         style="fill:#2e3192;fill-opacity:1;fill-rule:nonzero;stroke:none"
         d="M 1960.87,900.551 V 863.43 h 9.67 V 715.289 h -19.15 V 900.59 Z m 9.33,-7.289 h 80.64 V 872.75 h -80.64 z m 43.1,47.168 32.47,-26.239 -68.74,0.27 z m 27.29,-225.141 h -25.7 v 147.34 h 25.7 z m -35.01,0 h -13.36 v 129.043 l 13.36,18.297 z m -88.84,-35.309 h -93.65 l -24.41,-64.199 c -7.9,6.379 -16.82,9.879 -26.52,9.731 -9.14,-0.133 -18.08,-3.391 -26.08,-8.891 l -24.12,63.359 h -103.78 l -33.02,-47.261 c -9.88,9.043 -20.77,15.14 -32.28,18.351 l 14.33,66.93 h 349.53 z m 0,-64.48 H 1838 l -23.2,-19.809 c -3.24,5.981 -6.92,11.079 -10.95,15.329 l 23.74,62.429 h 89.15 z m 0,-67.762 h -93.89 v 28.442 l -0.25,1.511 c -1.41,4.289 -3.03,8.258 -4.74,12.028 l 22.54,19.261 h 76.34 z M 1813.16,443.031 h -16.5 V 576.18 h 16.5 z m -58.91,0 v 93.629 l 25.65,39.52 V 443.031 Z m 58.91,-30.332 c -27.3,-18.48 -55.54,-35.648 -84.87,-51.109 v 62.91 h 84.87 z M 1694.32,615.5 h -52.24 l -31.45,-24.039 v 7.598 l -0.9,1.64 c -5.91,10.692 -12.66,19.692 -19.94,27.281 l 31.8,45.469 h 95.89 l 23.21,-60.98 c -6.22,-5.41 -11.55,-12.36 -15.77,-20.348 z m 24.49,-37.949 -0.03,-29.813 h -108.15 v 35.524 l 33.68,25.718 h 47.79 l 29.88,-22.82 c -1.18,-2.789 -2.29,-5.621 -3.17,-8.609 z m -0.1,-95.949 h -108.08 v 59.617 h 108.14 z m -0.05,-66.153 h -108.03 v 59.633 h 108.08 z m -0.04,-58.879 c -2.47,-1.261 -4.88,-2.59 -7.36,-3.832 h -100.63 v 56.192 h 108.02 z m -107.99,-46.519 v 36.16 h 87.04 c -28.25,-13.512 -57.27,-25.629 -87.04,-36.16 z M 1596.1,553.5 h -112.35 l 16.28,16.281 h 96.07 z m 0,-203.449 v -44.949 c -2.93,-0.981 -5.8,-2.043 -8.74,-2.981 h -43.98 v 84.629 h 34.73 v 89.309 h -34.73 v 11.39 h 34.73 v 30.949 h -34.73 v 18.332 h 52.72 z m -281.29,-90.699 c -87.3,0 -171.66,12.699 -251.42,36.238 h 502.44 c -79.66,-23.481 -163.84,-36.238 -251.02,-36.238 z m -287.53,47.789 v 79.609 h 35.51 v 89.309 h -35.51 v 11.39 h 35.51 v 30.949 h -35.51 l 18.28,18.332 h 27.2 V 302.121 h -30.24 c -5.1,1.641 -10.19,3.301 -15.24,5.02 z m -25.98,293.73 -0.99,-1.699 v -4.09 L 973.594,615.5 h -18.047 -16.238 -17.981 l -33.547,-25.648 c -3.804,8.308 -8.379,15.199 -13.504,20.707 l 23.938,62.89 h 95.879 l 30.476,-43.597 c -8.65,-7.93 -16.58,-17.571 -23.27,-28.981 z m -0.73,-284.199 c -23.441,8.867 -46.382,18.789 -68.84,29.539 h 68.84 z m -107.726,49.43 v 42.828 h 107.466 v -56.192 h -81.747 c -8.653,4.321 -17.235,8.774 -25.719,13.364 z m 107.466,108.98 V 415.449 H 892.844 v 59.633 z m -107.466,6.52 v 59.617 h 107.466 v -59.617 z m -2.512,102 33.215,25.378 h 47.84 l 28.923,-22.101 V 547.738 H 892.844 v 28.442 l -0.246,1.511 c -0.696,2.079 -1.493,3.95 -2.266,5.911 z m -7.18,-140.571 H 866.711 V 576.18 h 16.441 z m 0,-71.64 c -29.043,16.16 -57.047,33.91 -83.98,53.109 h 83.98 z M 777.645,615.5 h -74.024 v 57.949 h 84.484 l 23.04,-60.617 c -4.844,-4.141 -9.219,-9.141 -12.942,-14.902 z m 11.156,-37.949 -0.024,-29.813 h -85.156 v 61.242 h 71.621 l 19.692,-16.832 c -2.422,-4.558 -4.582,-9.378 -6.133,-14.597 z M 849.934,449.59 v -6.559 h -25.696 v 93.629 l 24.532,39.852 z M 703.621,718 h 345.549 l 14.32,-66.609 c -11.99,-2.95 -23.5,-8.77 -33.97,-17.243 l -31.063,44.422 -0.957,1.41 H 893.711 l -24.578,-64.57 c -7.832,6.481 -16.723,10.102 -26.367,10.102 -0.207,0 -0.403,0 -0.586,0 -8.965,-0.133 -17.739,-3.231 -25.625,-8.532 l -23.965,63 h -88.969 z m 48.098,568.23 0.254,10.16 h 41.023 v -10.16 z M 782.383,851.648 H 740.52 l 10.906,423.392 h 30.957 z m 0,-15.898 h -51.028 v 7.66 h 51.028 z m 0,-15.98 h -77.91 l 1.367,2.019 17.285,5.852 v -0.129 h 59.258 z m 0,-63.149 h -71.785 v 44.93 h 71.785 z m -50.449,597.339 h 61.062 v -46.39 h -41.148 l -0.239,15.97 z m 236.218,-46.39 -0.203,15.97 -18.613,30.42 h 60.024 v -46.39 z m -0.125,-21.34 0.286,10.16 h 41.047 v -10.16 z M 821.484,746.941 h 92.774 v -0.179 h 11.172 v 0.179 h 3.554 69.727 0.32 v -10.25 H 811.25 Z m 3.262,40.911 h 11.531 v -31.411 h -11.316 v 31.231 z m 31.016,0 v -31.411 h -8.313 v 31.411 z m 19.519,0 v -31.411 h -8.355 v 31.411 z m 19.485,0 v -31.411 h -8.313 v 31.411 z m 19.492,0 v -31.411 h -8.328 v 31.411 z m 2.961,19.238 v -8.059 H 810.332 l -10.371,8.059 z M 882.832,915.012 V 816.77 h -13.496 v 98.242 z m -13.496,18.617 v 3.211 c 0,23.68 8.098,35.109 13.496,40.172 v -43.383 z m 47.082,-18.617 v -81.84 l -11.23,-16.402 h -11.184 v 98.242 z m -22.414,18.617 v 48.883 c 13.125,-4.864 22.684,-18.602 22.684,-34.953 v -4.95 h -0.27 v -8.98 z M 857.219,1114.2 h 99.676 l -4.227,-157.63 h -18.652 c -3.989,26.039 -25,45.96 -50.227,45.96 -16.738,0 -31.465,-8.87 -40.762,-22.35 v 119.81 z m -5.981,33.49 -8.211,-8.11 v 129.63 l 8.211,8.22 z m 105.157,-296.042 11.332,423.392 h 30.984 V 851.648 Z m -8.692,-15.898 v 7.66 h 51.008 v -7.66 z m -13.308,2.391 v 100.418 h 17.793 l -2.317,-86.911 h -10.398 v -12.109 z m 64.316,-36.59 v -44.93 h -71.809 v 44.93 z m -77.93,18.219 1.375,2.019 17.317,5.75 v -0.027 h 59.238 v -7.742 z m -55.39,337.65 v 88.6 h 57.043 v -88.6 z m 75.695,-18.63 v 125.86 h -20.441 l 12.531,12.52 h 28.074 l -4.055,-151.79 H 848.789 l 13.582,13.41 z m 676.084,168.78 -0.21,15.97 -18.61,30.42 h 59.99 v -46.39 z m -0.13,-21.34 0.26,10.16 h 41.04 v -10.16 z m -156.81,-549.539 10.26,10.25 h 177.22 v -10.25 z M 1519.91,718 h 40.65 l -14,-65.309 c -3.66,0.661 -7.39,1.039 -11.15,1.09 -0.3,0 -0.61,0 -0.9,0 -0.27,0 -0.55,-0.07 -0.81,-0.07 z m -46.16,69.852 h 11.51 v -31.231 h -11.29 v 31.051 z m 31.02,0 v -31.231 h -8.34 v 31.231 z m 19.47,0 v -31.231 h -8.3 v 31.231 z m 19.53,0 v -31.231 h -8.36 v 31.231 z m 19.5,0 v -31.231 h -8.33 v 31.231 z m 2.93,19.238 v -8.059 h -106.86 l -10.38,8.059 z m -34.37,107.922 V 816.77 h -13.48 v 98.242 z m -13.48,18.617 v 3.211 c 0,23.64 8.07,35.07 13.48,40.14 v -43.351 z m 47.31,-18.617 V 833.461 L 1554.2,816.77 h -11.21 v 98.242 z m -22.67,18.617 v 48.891 c 13.12,-4.872 22.67,-18.598 22.67,-34.961 v -13.93 z M 1506.2,1114.2 h 99.8 l -4.14,-157.63 H 1583 c -3.99,26.039 -24.98,45.96 -50.2,45.96 -16.75,0 -31.49,-8.87 -40.79,-22.358 V 1100 Z m -5.95,33.49 -8.24,-8.13 v 129.62 l 8.24,8.25 z m 105.38,-296.042 11.12,423.392 h 30.96 V 851.648 Z m -8.95,-15.898 v 7.66 h 51.03 v -7.66 z m -13.2,3.23 v 99.579 h 17.9 l -2.29,-86.911 h -10.64 V 840.34 Z m 64.23,-37.429 v -44.93 h -71.82 v 44.93 z m -77.94,18.219 1.37,2.019 17.31,5.723 h 59.26 v -7.742 z m -55.37,337.65 v 88.6 h 57.02 v -88.6 z m 75.66,-18.63 v 125.86 h -20.42 l 12.54,12.52 h 28.09 l -3.98,-151.79 h -108.51 l 13.61,13.41 z m -131.5,-458.81 h -70.04 l -41.22,-38.8 c -8.25,5.519 -17.03,9.281 -26.21,11.14 l 14.1,65.68 h 178.05 l 13.9,-64.82 c -12.16,-1.282 -24.08,-5.571 -35.15,-12.711 z M 1254.17,386.75 h 35.57 v 89.309 h -35.57 v 11.39 h 35.57 v 30.949 h -35.57 l 18.29,18.332 h 27.22 V 302.121 h -45.51 z M 1096.5,718 1082.71,653.672 c -0.4,0.008 -0.76,0.098 -1.13,0.109 -3.94,0.008 -7.87,-0.312 -11.75,-0.91 l -14,65.129 z m -58.66,28.941 h 177.19 v -10.25 l 0.32,2.309 v -2.309 h -0.32 -187.45 z m 3.25,40.911 h 11.52 v -31.231 h -11.29 v 31.051 z m 31.02,0 v -31.231 h -8.33 v 31.231 z m 19.52,0 v -31.231 h -8.35 v 31.231 z m 19.44,0 v -31.231 h -8.26 v 31.231 z m 19.54,0 v -31.231 h -8.37 v 31.231 z m 2.93,19.238 v -8.059 h -106.88 l -10.39,8.059 z m -34.37,107.922 V 816.77 h -13.52 v 98.242 z m -13.52,18.617 v 3.211 c 0,23.699 8.11,35.121 13.52,40.18 v -43.391 z m 47.37,-18.617 v -81.621 l -11.48,-16.621 h -11.2 v 98.242 z m -22.68,18.617 v 48.883 c 13.13,-4.871 22.68,-18.602 22.68,-34.953 v -13.93 z m -36.82,180.571 h 99.86 l -4.05,-157.63 h -18.99 c -3.99,26.039 -24.99,45.96 -50.24,45.96 -16.72,0 -31.48,-8.882 -40.76,-22.37 v 119.86 z m -5.94,33.49 -8.24,-8.13 v 129.65 l 8.24,8.23 z m 158.1,159.88 h -41.19 l -0.18,15.97 -18.64,30.42 h 60.01 z m -41.34,-21.34 0.27,10.16 h 41.07 v -10.16 z m -11.19,-434.582 10.9,423.392 h 30.98 V 851.648 Z m -9.16,-15.898 v 7.66 h 51.04 v -7.66 z m -13.17,2.781 v 100.028 h 18.04 l -2.22,-86.911 h -10.88 v -11.699 z m 64.21,-36.98 v -44.93 h -71.79 v 44.93 z m -77.93,18.219 1.38,2.019 17.28,5.723 h 59.27 V 819.77 Z M 1281.21,718 l 14.05,-65.5 c -11.12,-2.012 -21.98,-6.531 -32.07,-13.352 l -34.55,40.832 h -70.07 l -39.99,-37.671 c -9.22,5.8 -19.06,9.461 -29.36,10.761 l 13.94,64.93 z m 68.66,89.09 v -8.059 h -106.88 l -10.37,8.059 z m -34.38,107.922 V 816.77 h -13.51 v 98.242 z m -13.51,18.617 v 3.211 c 0,23.699 8.11,35.121 13.51,40.18 v -43.391 z m 47.08,-18.617 -0.79,-82.723 -10.47,-15.519 h -11.14 v 98.242 z m -22.4,18.617 v 48.883 c 13.13,-4.864 22.72,-18.602 22.72,-34.942 l -0.12,-13.941 z m -36.82,180.571 h 99.82 l -4.14,-157.63 h -18.81 c -4,26.039 -25.03,45.96 -50.27,45.96 -16.73,0 -31.45,-8.85 -40.75,-22.311 v 119.801 z m -5.93,33.49 -8.22,-8.1 v 129.62 l 8.22,8.22 z m 116.91,159.88 -0.19,15.97 -18.62,30.42 h 60.04 v -46.39 z m -11.51,-455.922 11.09,423.392 h 30.96 V 851.648 Z m -8.95,-15.898 v 7.66 h 51 v -7.66 z m -14.11,3.09 1.05,99.719 h 17.77 l -2.3,-86.911 h -10.64 v -11.296 z m -12.81,-19.07 1.38,2.019 17.31,5.723 h 59.23 v -7.742 z m 6.12,-63.149 v 44.93 h 71.8 v -44.93 z m -20.97,0 v 31.231 h 8.35 v -31.231 z m -19.49,0 v 31.231 h 8.33 v -31.231 z m -19.53,0 v 31.231 h 8.36 v -31.231 z m -19.47,0 v 31.231 h 8.3 v -31.231 z m -22.69,31.231 h 11.52 v -31.231 h -11.3 v 31.051 z m 71.1,-69.852 -13.89,-64.789 c -2.03,0.211 -4.05,0.551 -6.13,0.57 -2.26,0.008 -4.49,-0.312 -6.73,-0.511 L 1287.89,718 Z m -84.59,18.691 10.24,10.25 h 177.2 v -10.25 z m 187.77,0.321 v -0.321 h -0.05 z m -31,549.218 0.28,10.16 h 41.08 v -10.16 z m -102.62,-128.81 v 88.6 h 57.02 v -88.6 z m 75.66,-18.63 v 125.86 h -20.41 l 12.51,12.52 h 28.1 l -3.97,-151.79 h -108.52 l 13.6,13.41 z m -291.99,18.63 v 88.6 h 57.05 v -88.6 z m 75.69,-18.63 v 125.86 h -20.46 l 12.56,12.52 h 28.06 l -3.92,-151.79 H 1065.1 l 13.62,13.41 z m -127.55,-585.29 16.28,16.281 h 96.1 V 553.5 Z m 59.66,-77.441 v 11.39 h 34.72 v 30.949 h -34.72 v 18.332 h 52.72 V 302.121 h -52.72 v 84.629 h 34.72 v 89.309 z m 103.17,139.601 -35.92,-16.89 v 0.289 l -0.9,1.64 c -8.99,16.242 -19.76,28.93 -31.74,37.883 l 37.01,34.867 h 64.45 l 32.35,-38.238 c -11.24,-8.742 -21.45,-20.199 -29.74,-34.34 l -0.97,-1.699 z m -35.92,-67.922 v 43.844 l 35.75,16.789 34.71,-16.66 v -43.973 z m 0,-66.136 v 59.617 h 70.46 v -59.617 z m 0,-66.153 v 59.633 h 70.46 v -59.633 z m 70.46,-70.629 v -42.699 h -70.46 v 42.699 z m -70.46,9.321 v 54.789 h 70.46 v -54.789 z m 100,199.359 16.29,16.281 h 96.08 V 553.5 Z m 59.66,-77.441 v 11.39 h 34.76 v 30.949 h -34.76 v 18.332 h 52.71 V 302.121 h -52.71 v 84.629 h 34.76 v 89.309 z m 67.23,71.679 v 44.102 l 38.78,16.531 31.71,-16.742 v -43.891 z m 0,-66.136 v 59.617 h 70.49 v -59.617 z m 0,-66.153 v 59.633 h 70.49 v -59.633 z m 70.49,-70.629 v -42.699 h -70.49 v 42.699 z m -70.49,9.321 v 54.789 h 70.49 v -54.789 z m 71.48,246.718 -0.99,-1.699 v -0.172 l -31.54,16.672 -38.95,-16.601 -0.91,1.64 c -8.55,15.492 -18.79,27.68 -30.1,36.563 l 38.42,36.187 h 64.44 l 31.15,-36.808 c -11.95,-8.903 -22.79,-20.891 -31.52,-35.782 z m 25.94,-124.8 v 11.39 h 35.57 v 30.949 h -35.57 l 18.32,18.332 h 27.18 V 302.121 h -45.5 v 84.629 h 35.57 v 89.309 z M 730.48,1373.6 h 1150.71 v -13.12 H 730.48 Z m 1148.42,53.31 v -46.78 H 746.621 v 46.78 z m -1207.369,69.97 v 25.28 H 1940.14 v -25.28 z m 71.899,35.91 h 1126.18 v -4.1 H 743.43 Z m 39.871,68.79 -0.196,-64.13 h -26.093 l 0.195,64.13 z m -34.153,6.53 v 4.92 h 42.219 v -4.92 z m 50.832,-3.27 h 9.258 V 1559 l -9.258,-7.38 z m 15.782,0 h 10.617 v -45.72 h -10.617 z m 17.136,0 h 10.571 v -45.72 h -10.571 z m 17.102,0 h 9.297 v -45.72 H 850 Z m 15.82,-3.26 h 26.067 v -64.13 H 865.82 Z m 42.774,3.26 h 8.972 v -46.07 l -8.972,-7.15 z m 15.5,0 h 10.586 v -45.72 h -10.586 z m 17.097,0 h 10.606 v -45.72 h -10.606 z m 17.129,0 h 1.551 v -3.26 h 8.067 v -42.46 h -9.618 z m 16.145,-3.26 h 26.025 v -64.13 h -26.025 z m 32.555,0 h 8.08 v 3.26 h 161.96 v -3.26 h 8.06 v -64.13 h -178.1 z m 184.62,0 h 26.1 v -64.13 h -26.1 z m 32.63,0 h 8.04 v 3.26 h 162.02 v -3.26 h 8.04 v -64.13 h -178.1 z m 184.63,0 h 26.09 v -64.13 h -26.09 z m 32.61,0 h 8.07 v 3.26 h 161.94 v -3.26 h 8.07 v -64.13 h -178.08 z m 184.61,0 h 26.11 v -64.13 h -26.11 z m 42.92,3.26 h 9.26 V 1559 l -9.26,-7.38 z m 15.78,0 h 10.61 v -45.72 h -10.61 z m 17.13,0 h 10.59 v -45.72 h -10.59 z m 17.11,0 h 9.13 v -45.72 h -9.13 z m 15.66,-3.26 h 26.11 v -64.13 h -26.11 z m 42.77,3.26 h 9.26 V 1559 l -9.26,-7.38 z m 15.78,0 h 10.63 v -45.72 h -10.63 z m 17.15,0 H 1821 v -45.72 h -10.58 z m 17.1,-3.26 h 9.29 v -42.46 h -9.29 z m 41.91,0 v -64.13 h -26.1 v 64.13 z m -35.25,11.45 h 43.16 v -4.92 h -43.16 z m 43,-305.46 h -40.79 l -0.2,15.97 -18.62,30.42 h 67.68 z m 13.47,-464.929 v -6.129 h -73.97 v 6.129 z m 12.13,-84.981 h -106.63 v 42.86 h 106.63 z m -217,-11.762 h 217 l 9.56,-9.207 h -235.79 z m 4.3,41.954 h 11.54 V 757.66 h -11.33 v 30.012 z m 31.01,0 V 757.66 h -8.31 v 30.192 z m 19.51,0 V 757.66 h -8.34 v 30.192 z m 19.5,0 V 757.66 h -8.33 v 30.192 z m 19.53,0 V 757.66 h -8.37 v 30.192 z m 4.77,19.238 v -8.059 h -108.75 l -10.37,8.059 z m -36.24,107.922 V 816.77 h -13.49 v 98.242 z m -13.49,18.617 v 3.211 c 0,23.742 8.11,35.148 13.49,40.199 v -43.41 z m 47.35,-18.617 v -85.621 l -8.63,-12.621 h -14.04 v 98.242 z m -22.67,18.617 v 48.859 c 13.11,-4.859 22.67,-18.59 22.67,-34.929 v -13.93 z m 131.3,-106.891 V 819.77 H 1789 l 1.37,2.019 16.54,4.949 z m -83.74,12.492 -7.12,-2.421 v 101.75 h 20.84 l -2.26,-86.149 h -11.46 z m -84.4,274.97 h 102.71 l -4.13,-157.63 h -21.73 c -4,26.039 -25.02,45.96 -50.27,45.96 -16.73,0 -31.46,-8.87 -40.74,-22.358 v 119.838 z m -5.95,33.49 -8.21,-8.11 v 129.62 l 8.21,8.22 z m 119.39,127.35 h 19.84 V 852.41 h -30.9 z m -105.23,-117.62 v 88.6 h 57.04 v -88.6 z m 75.7,-18.63 v 125.86 h -20.44 l 12.53,12.52 h 30.97 l -3.95,-151.79 h -111.42 l 13.59,13.41 z M 632.5,715.141 H 606.809 V 862.629 H 632.5 Z m -35.02,0 h -13.347 v 129.168 l 13.347,18.32 z M 562.102,872.75 v 20.512 h 80.64 V 872.75 Z m 43.101,67.68 32.485,-26.239 -68.723,0.27 z m 1596.277,297.1 h -322.67 l -0.22,7.08 h 322.17 c -0.92,8.72 -2.13,17.34 -3.31,25.99 h -193.39 l 20.75,20.74 h 169.71 c -0.59,3.75 -1.37,7.45 -2.01,11.19 h -297.34 l 9.12,54.24 -16.57,1.78 v 21.58 h -7.3 l 51.37,110.22 h 14.87 v 38.34 h -70.7 v 5.44 3.32 64.13 h 8.05 v 17.97 h -14.31 v 7.71 h -26.63 v -7.71 h -15.55 v -3.25 h -160.73 v 3.25 h -14.3 v 7.71 h -26.63 v -7.71 h -14.34 v -3.25 h -96.86 c -0.16,8.29 -0.91,29.51 -4.78,27.5 -23.15,-7.34 -40.08,0.68 -40.08,0.68 0,0 -11.21,39.75 -35.42,38.4 -11.19,-10.15 -38.52,-16.83 -38.52,-16.83 0,0 -7.49,0 -14.49,7.95 11.3,9.24 15.55,37.01 -8.5,34.02 -15.98,-5.09 -10.89,-22.79 -10.89,-22.79 0,0 -6.98,-2.91 -15.85,-18.85 4.92,22.5 -22.36,48.02 -29.2,49.85 -2.78,10.09 18.04,21.56 -10.23,33.02 -24.24,-10.8 -7.72,-20.29 -8.64,-31.41 -5.58,4.05 -21.04,16.35 -27.41,11.46 -6.36,-4.89 -8.08,-21.16 -8.08,-21.16 0,0 10.26,-51.54 6.52,-53.54 -5.26,13.79 -17.78,13.53 -17.78,13.53 -1.58,3.8 16.24,23.17 -3.44,31.3 -24.34,0.37 -13.87,-30.03 -13.87,-30.03 0,0 -21.96,-11.89 -26.74,-10.43 -4.79,1.44 -22.6,33.66 -28.56,31.65 -10.87,-3.82 -5.57,-22.83 -16.17,-40.07 -16.45,-10.61 -32.57,-9.91 -42.81,-10.47 -8.05,-0.43 -8.02,-16.78 -7.66,-23.78 h -96.96 v 3.25 h -14.29 v 7.71 h -26.622 v -7.71 h -14.317 v -3.25 h -161.98 v 3.25 h -14.317 v 7.71 h -26.601 v -7.71 h -14.344 v -17.97 h 8.055 v -64.13 h -11.907 v -8.76 h -73.765 v -38.34 h 13.711 l 66.843,-110.22 h -21.613 v -26.17 l 21.176,-32.29 0.254,-19.21 H 437.156 c -0.633,-3.69 -1.386,-7.34 -1.98,-11.06 h 310.168 l -0.547,-20.8 H 432.234 c -1.179,-8.65 -2.39,-17.27 -3.308,-25.99 h 315.183 l -0.183,-7.15 H 428.203 c -0.351,-3.66 -0.527,-7.37 -0.84,-11.05 H 743.66 L 733.992,851.648 H 723.125 V 839.43 l -24.387,-8.239 -15.476,-22.601 h 17.644 v -61.649 h 81.477 v -0.179 l 0.027,0.179 h 0.266 v -10.25 h -97.063 v -21.55 H 641.824 V 863.43 h 10.239 v 36.73 l 25.371,-0.101 -71.731,57.921 -79.988,-57.32 27.066,-0.109 V 863.43 h 9.668 V 696.52 H 685.613 V 649.281 H 603.02 c 4.402,-6.25 8.816,-12.5 13.375,-18.621 h 69.218 v -17.961 h -55.398 c 1.699,-2.168 3.34,-4.367 5.066,-6.519 h 50.332 V 567.898 H 667.98 c 1.961,-2.168 3.895,-4.359 5.868,-6.519 h 11.765 v -12.5 c 5.93,-6.219 11.907,-12.391 18.008,-18.43 v 10.77 h 85.149 l -0.059,-59.617 h -31.199 c 2.625,-2.192 5.269,-4.352 7.926,-6.52 h 23.273 l -0.027,-43.184 c -0.032,0.024 -0.071,0.051 -0.09,0.063 v -28.18 C 937.5,298.48 1118.98,236.359 1314.81,236.359 c 187.89,0 362.65,57.039 508.04,154.629 v 84.094 h 41.39 c 2.65,2.168 5.31,4.328 7.93,6.52 h -49.32 v 59.617 h 93.89 v -19.68 c 0.32,0.313 0.64,0.609 0.96,0.922 2.32,2.219 4.66,4.41 6.96,6.66 9.09,8.93 18.03,18 26.73,27.328 0.21,0.211 0.41,0.442 0.6,0.66 v 1.95 h 1.76 c 3.4,3.671 6.69,7.441 10.03,11.171 h -11.83 l -0.12,35.95 h 42.56 c 1.73,2.152 3.38,4.351 5.08,6.519 h -47.65 l -0.07,17.801 h 61.4 c 4.65,6.23 9.14,12.582 13.64,18.93 h -74.99 l 18.74,46.929 h 87.16 c 3.85,6.27 7.67,12.563 11.36,18.93 h -19.15 V 863.43 h 10.26 v 36.73 l 25.32,-0.101 -71.69,57.929 -62.41,-44.707 v 251.609 l 0.28,61.45 h 250.65 c -0.32,3.72 -0.48,7.48 -0.84,11.19" /><path
         id="path164"
         style="fill:#2e3192;fill-opacity:1;fill-rule:nonzero;stroke:none"
         d="m 2179.48,936.031 c 1.26,5.008 2.32,10.09 3.49,15.141 l -8.43,6.808 -80.08,-57.32 27.14,-0.109 V 863.43 h 15.47 c 0,0 3.21,9.05 3.3,9.32 h -9.45 v 20.512 h 36.7 c 0.92,3.109 4.95,17.148 6.03,21.058 l -35.91,0.141 36.3,25.98 5.44,-4.41" /><path
         id="path166"
         style="fill:#2e3192;fill-opacity:1;fill-rule:nonzero;stroke:none"
         d="m 1007.45,1822.38 c -2.25,-1.32 -4.72,-2.59 -6.98,-3.9 -3.325,-1.8 -6.794,-3.64 -10.06,-5.55 l -7.777,-4.54 c -3.274,-1.91 -6.582,-4.01 -9.778,-6.03 -2.257,-1.33 -4.574,-2.84 -6.835,-4.16 l -2.778,4.76 2.988,2.09 c 5.989,4.16 8.032,6.7 2.098,16.88 l -27.41,46.95 c -6.082,10.41 -8.766,9.53 -15.664,5.5 l -3.012,-1.77 -2.855,4.91 c 12.699,9.09 18.926,17.45 22,22.28 l 3.515,2.05 40.75,-69.81 c 5.942,-10.17 9.161,-9.63 15.728,-6.47 l 3.29,1.57 2.78,-4.76" /><path
         id="path168"
         style="fill:#2e3192;fill-opacity:1;fill-rule:nonzero;stroke:none"
         d="m 1182.45,1929.89 c -3.38,-4.15 -8.02,-11.94 -6.31,-21.37 1.81,-10 9.42,-17.78 21.15,-15.66 10.86,1.97 17.22,10.06 15.66,18.64 -2.3,12.73 -17.77,15.82 -27.43,17.77 z m 14.41,18.25 c 3.52,5.07 4.68,10.9 3.59,16.91 -1.82,10 -9.23,15.89 -19.52,14.02 -9.72,-1.75 -13.3,-8.9 -12.22,-14.9 1.85,-10.16 15.41,-13.31 23.7,-15.06 z m -41.23,5.98 c -2.54,14.01 6.57,28.07 25.16,31.43 20.44,3.7 31.74,-6.51 33.53,-16.37 1.87,-10.3 -5.64,-18.6 -11.8,-22.96 6.9,-2.15 20.58,-8.38 23.32,-23.53 2.8,-15.44 -5.97,-32.24 -27.41,-36.13 -19.17,-3.46 -34.84,4.03 -37.53,18.9 -2.08,11.44 6.5,21.11 15.6,26.31 -6,2.15 -18.31,8.19 -20.87,22.35" /><path
         id="path170"
         style="fill:#2e3192;fill-opacity:1;fill-rule:nonzero;stroke:none"
         d="m 1447.43,1885.37 c -2.58,0.43 -5.27,1.03 -7.85,1.47 -3.69,0.76 -7.54,1.57 -11.27,2.2 l -8.88,1.5 c -3.73,0.62 -7.62,1.14 -11.36,1.62 -2.58,0.43 -5.34,0.75 -7.91,1.18 l 0.91,5.45 3.64,-0.31 c 7.26,-0.65 10.47,-0.01 12.42,11.61 l 9.04,53.57 c 2.01,11.9 -0.61,12.92 -8.49,14.26 l -3.44,0.58 0.94,5.58 c 15.57,-1.15 25.71,1.26 31.16,3 l 4,-0.68 -13.44,-79.66 c -1.96,-11.59 0.85,-13.26 7.92,-15.03 l 3.54,-0.9 -0.93,-5.44" /><path
         id="path172"
         style="fill:#2e3192;fill-opacity:1;fill-rule:nonzero;stroke:none"
         d="m 1640.64,1845.56 c -6.02,-10.61 -11.74,-22.74 -2.77,-27.84 10.12,-5.74 17.3,5.73 22.68,15.21 5.73,10.1 13.41,22.45 3.05,28.34 -4.42,2.5 -9.86,1.76 -14.02,-0.57 -3.12,-4.9 -6.06,-10.09 -8.94,-15.14 z m 32.05,19.91 c 11.11,-6.31 18,-22.43 8.89,-38.48 -9.7,-17.06 -29.65,-23.94 -46.06,-14.61 -12.39,7.03 -23.49,24.87 -5.33,56.85 21.96,38.65 48.53,34.25 61.42,26.93 13.02,-7.38 14.2,-17.08 11.48,-21.89 -2.3,-4.03 -7.26,-5.4 -11.18,-3.18 -4.92,2.8 -4.47,7.72 -4.2,11.42 0.15,4.09 0.3,8.19 -3.75,10.48 -3.53,2.01 -13.89,4.39 -29.25,-24.17 8.53,1.52 15.19,-1.77 17.98,-3.35" /></g></g></svg>